<svg xmlns="http://www.w3.org/2000/svg" xmlns:xlink="http://www.w3.org/1999/xlink" width="256.004" height="233.438" viewBox="0 0 256.004 233.438">
  <defs>
    <linearGradient id="linear-gradient" x1="0.5" y1="0.625" x2="0.5" y2="1" gradientUnits="objectBoundingBox">
      <stop offset="0" stop-color="#fff" stop-opacity="0"/>
      <stop offset="1" stop-color="#fff"/>
    </linearGradient>
  </defs>
  <g id="_2" data-name="2" transform="translate(23610.234 12349.719)">
    <path id="Path_475836" data-name="Path 475836" d="M126.953-53.809h.1l-.1,36.621L109.863-.1,26.855,0,9.766-17.09V-119.629l16.992-17.09h83.105l17.09,17.09Zm-39.062-48.73H48.828V-34.18l39.063-.1Zm136.816,17.09v-17.09H146.582v-17.09l17.09-17.09H246.68l17.09,17.09v51.27L246.68-51.27H185.645v17.09H263.77V0H146.582V-68.359l17.09-17.09Z" transform="translate(-23619 -12213)" fill="#fff"/>
    <path id="Path_475833" data-name="Path 475833" d="M26.442-137.719l83.836.1,17.674,17.674.1,38.036h-.1v65.234L110.277,1H26.342L8.766-16.677V-120.043Zm83.007,2.1-82.179-.1-16.5,16.5V-17.5L27.174-1h82.275l16.5-16.5V-83.91h.1l-.094-35.206Zm36.133-2.1H264.77v36.18H186.645v15.09h60.449L264.77-68.774v52.1L247.094,1H163.258L145.582-16.676v-18.5h78.125V-50.27H163.258L145.582-67.945Zm117.187,2H147.582v66.945l16.5,16.5h61.621v19.09H147.582V-17.5L164.086-1h82.179l16.5-16.5V-67.945l-16.5-16.5H184.645v-19.09H262.77ZM47.828-103.542l41.063.1V-33.18H47.828Zm39.063,2.1-37.062-.093V-35.18H86.891Z" transform="translate(-23619 -12161.281)" fill="url(#linear-gradient)"/>
    <path id="Path_475833-2" data-name="Path 475833" d="M26.442-137.719l83.836.1,17.674,17.674.1,38.036h-.1v65.234L110.277,1H26.342L8.766-16.677V-120.043Zm83.007,2.1-82.179-.1-16.5,16.5V-17.5L27.174-1h82.275l16.5-16.5V-83.91h.1l-.094-35.206Zm36.133-2.1H264.77v36.18H186.645v15.09h60.449L264.77-68.774v52.1L247.094,1H163.258L145.582-16.676v-18.5h78.125V-50.27H163.258L145.582-67.945Zm117.187,2H147.582v66.945l16.5,16.5h61.621v19.09H147.582V-17.5L164.086-1h82.179l16.5-16.5V-67.945l-16.5-16.5H184.645v-19.09H262.77ZM47.828-103.542l41.063.1V-33.18H47.828Zm39.063,2.1-37.062-.093V-35.18H86.891Z" transform="translate(-23619 -12117.281)" fill="url(#linear-gradient)"/>
  </g>
</svg>
