<svg xmlns="http://www.w3.org/2000/svg" xmlns:xlink="http://www.w3.org/1999/xlink" width="256.004" height="233.438" viewBox="0 0 256.004 233.438">
  <defs>
    <linearGradient id="linear-gradient" x1="0.5" y1="0.625" x2="0.5" y2="1" gradientUnits="objectBoundingBox">
      <stop offset="0" stop-color="#fff" stop-opacity="0"/>
      <stop offset="1" stop-color="#fff"/>
    </linearGradient>
  </defs>
  <g id="_3" data-name="3" transform="translate(24024.002 12869.718)">
    <path id="Path_475837" data-name="Path 475837" d="M126.953-53.809h.1l-.1,36.621L109.863-.1,26.855,0,9.766-17.09V-119.629l16.992-17.09h83.105l17.09,17.09Zm-39.062-48.73H48.828V-34.18l39.063-.1Zm87.988,51.27v-34.18l48.828-.1v-16.992H146.582v-34.18h100.1l17.09,17.09v41.5L254-68.359l9.766,9.766v41.406L246.68-.1l-100.1.1V-34.18l78.125-.1V-51.27Z" transform="translate(-24033 -12733)" fill="#fff"/>
    <path id="Path_475836" data-name="Path 475836" d="M145.582,1V-35.178l78.125-.1V-50.27H174.879V-86.447l48.828-.1v-14.994H145.582v-36.18H247.094l17.676,17.676v42.332l-9.351,9.351,9.351,9.351v42.235L247.094.9Zm2-34.182V-1l98.683-.1,16.5-16.5V-58.18l-10.18-10.18,10.18-10.18v-40.675l-16.5-16.5H147.582v32.18h78.125v18.99l-48.828.1V-52.27h48.828v18.991ZM26.442,1,8.766-16.676V-120.041l17.576-17.677h83.936l17.676,17.676v65.234h.1l-.1,38.036L110.278.9h-.414ZM10.766-17.5,27.269-1l82.179-.1L125.954-17.6l.094-35.206h-.095v-66.406l-16.5-16.5H27.174l-16.408,16.5ZM47.828-33.177v-70.362H88.891V-33.28Zm2-68.362v66.357l37.062-.093v-66.264Z" transform="translate(-24032.768 -12681.282)" fill="url(#linear-gradient)"/>
    <path id="Path_475836-2" data-name="Path 475836" d="M145.582,1V-35.178l78.125-.1V-50.27H174.879V-86.447l48.828-.1v-14.994H145.582v-36.18H247.094l17.676,17.676v42.332l-9.351,9.351,9.351,9.351v42.235L247.094.9Zm2-34.182V-1l98.683-.1,16.5-16.5V-58.18l-10.18-10.18,10.18-10.18v-40.675l-16.5-16.5H147.582v32.18h78.125v18.99l-48.828.1V-52.27h48.828v18.991ZM26.442,1,8.766-16.676V-120.041l17.576-17.677h83.936l17.676,17.676v65.234h.1l-.1,38.036L110.278.9h-.414ZM10.766-17.5,27.269-1l82.179-.1L125.954-17.6l.094-35.206h-.095v-66.406l-16.5-16.5H27.174l-16.408,16.5ZM47.828-33.177v-70.362H88.891V-33.28Zm2-68.362v66.357l37.062-.093v-66.264Z" transform="translate(-24032.768 -12637.281)" fill="url(#linear-gradient)"/>
  </g>
</svg>
