<svg xmlns="http://www.w3.org/2000/svg" xmlns:xlink="http://www.w3.org/1999/xlink" width="1520" height="750" viewBox="0 0 1520 750">
  <defs>
    <linearGradient id="linear-gradient" y1="0.5" x2="0.666" y2="0.5" gradientUnits="objectBoundingBox">
      <stop offset="0" stop-color="#283347"/>
      <stop offset="1" stop-color="#fff" stop-opacity="0"/>
    </linearGradient>
  </defs>
  <path id="Rectangle_24756" data-name="Rectangle 24756" d="M100,4A96.73,96.73,0,0,0,80.648,5.95a95.453,95.453,0,0,0-34.32,14.443A96.293,96.293,0,0,0,11.542,62.634,95.5,95.5,0,0,0,5.95,80.648,96.734,96.734,0,0,0,4,100V650a96.734,96.734,0,0,0,1.95,19.352,95.448,95.448,0,0,0,14.442,34.32,96.293,96.293,0,0,0,42.241,34.786,95.492,95.492,0,0,0,18.015,5.592A96.73,96.73,0,0,0,100,746H1420a96.733,96.733,0,0,0,19.352-1.95,95.457,95.457,0,0,0,34.32-14.443,96.291,96.291,0,0,0,34.786-42.241,95.487,95.487,0,0,0,5.592-18.015A96.734,96.734,0,0,0,1516,650V100a96.734,96.734,0,0,0-1.95-19.352,95.456,95.456,0,0,0-14.443-34.32,96.292,96.292,0,0,0-42.241-34.786,95.49,95.49,0,0,0-18.015-5.592A96.733,96.733,0,0,0,1420,4H100m0-4H1420a100,100,0,0,1,100,100V650a100,100,0,0,1-100,100H100A100,100,0,0,1,0,650V100A100,100,0,0,1,100,0Z" fill="url(#linear-gradient)"/>
</svg>
