<svg xmlns="http://www.w3.org/2000/svg" xmlns:xlink="http://www.w3.org/1999/xlink" width="1600" height="730" viewBox="0 0 1600 730">
  <defs>
    <linearGradient id="linear-gradient" x1="0.038" y1="0.978" x2="0.108" y2="0.481" gradientUnits="objectBoundingBox">
      <stop offset="0" stop-color="#283347"/>
      <stop offset="1" stop-color="#fff" stop-opacity="0"/>
    </linearGradient>
  </defs>
  <path id="ildar-garifullin-ltjxdas8oug-unsplash" d="M1466,726a130.983,130.983,0,0,0,26.2-2.641,129.268,129.268,0,0,0,46.478-19.558,130.392,130.392,0,0,0,47.1-57.2,129.315,129.315,0,0,0,7.573-24.4A130.973,130.973,0,0,0,1596,596V134a130.973,130.973,0,0,0-2.641-26.2A129.263,129.263,0,0,0,1573.8,61.319a130.391,130.391,0,0,0-57.2-47.1,129.318,129.318,0,0,0-24.4-7.573A130.983,130.983,0,0,0,1466,4H134a130.983,130.983,0,0,0-26.2,2.641A129.268,129.268,0,0,0,61.319,26.2a130.392,130.392,0,0,0-47.1,57.2,129.315,129.315,0,0,0-7.573,24.4A130.973,130.973,0,0,0,4,134V596a130.973,130.973,0,0,0,2.641,26.2A129.263,129.263,0,0,0,26.2,668.681a130.391,130.391,0,0,0,57.2,47.1,129.321,129.321,0,0,0,24.4,7.573A130.983,130.983,0,0,0,134,726H1466m0,4H134A134,134,0,0,1,0,596V134A134,134,0,0,1,134,0H1466a134,134,0,0,1,134,134V596A134,134,0,0,1,1466,730Z" fill="url(#linear-gradient)"/>
</svg>
