<svg xmlns="http://www.w3.org/2000/svg" width="521.298" height="639.408" viewBox="0 0 521.298 639.408">
  <g id="Group_122309" data-name="Group 122309" transform="matrix(0.921, 0.391, -0.391, 0.921, 180.309, -220.28)">
    <path id="Path_462861" data-name="Path 462861" d="M-7164.7-3344.605s42.23,90.012-89.114,139.062-86.566,182.638-47.819,144.634-48.195-94.128-127.578-20.554-68.894,212.634,42.095,287.353" transform="translate(7603 3535.612)" fill="none" stroke="#283347" stroke-linecap="round" stroke-width="4" stroke-dasharray="10"/>
    <g id="Group_122272" data-name="Group 122272" transform="translate(415.657 167.461) rotate(-12)">
      <path id="Path_462837" data-name="Path 462837" d="M.254,18.43,8.224,2.865A5.365,5.365,0,0,1,13.441.014h0a5.286,5.286,0,0,1,4.652,3.65l5.19,16.631a2.41,2.41,0,0,1-2.564,3.071h0a2.484,2.484,0,0,1-1.75-.927l-3.321-4.2a5.088,5.088,0,0,0-3.583-1.9,5.145,5.145,0,0,0-3.83,1.271l-4.1,3.644a2.513,2.513,0,0,1-1.871.621H2.255A2.385,2.385,0,0,1,.254,18.43Z" transform="matrix(0.966, -0.259, 0.259, 0.966, -0.001, 6.059)" fill="#283347"/>
    </g>
  </g>
</svg>
