<svg xmlns="http://www.w3.org/2000/svg" width="24" height="24" viewBox="0 0 24 24">
  <g id="vuesax_linear_calendar-search" data-name="vuesax/linear/calendar-search" transform="translate(-620 -188)">
    <g id="calendar-search" transform="translate(620 188)">
      <path id="Vector" d="M0,0V3" transform="translate(8 2)" fill="none" stroke="#283347" stroke-linecap="round" stroke-linejoin="round" stroke-width="1.5"/>
      <path id="Vector-2" data-name="Vector" d="M0,0V3" transform="translate(16 2)" fill="none" stroke="#283347" stroke-linecap="round" stroke-linejoin="round" stroke-width="1.5"/>
      <g id="Group" transform="translate(15 15)">
        <path id="Vector-3" data-name="Vector" d="M6.4,3.2A3.2,3.2,0,1,1,3.2,0,3.2,3.2,0,0,1,6.4,3.2Z" fill="none" stroke="#283347" stroke-linecap="round" stroke-linejoin="round" stroke-width="1.5"/>
        <path id="Vector-4" data-name="Vector" d="M1,1,0,0" transform="translate(6 6)" fill="none" stroke="#283347" stroke-linecap="round" stroke-linejoin="round" stroke-width="1.5"/>
      </g>
      <path id="Vector-5" data-name="Vector" d="M0,0H17" transform="translate(3.5 9.09)" fill="none" stroke="#283347" stroke-linecap="round" stroke-linejoin="round" stroke-width="1.5"/>
      <path id="Vector-6" data-name="Vector" d="M10.37,18.5H5c-3.5,0-5-2-5-5V5C0,2,1.5,0,5,0h8c3.5,0,5,2,5,5V9.5" transform="translate(3 3.5)" fill="none" stroke="#283347" stroke-linecap="round" stroke-linejoin="round" stroke-width="1.5"/>
      <path id="Vector-7" data-name="Vector" d="M0,0H24V24H0Z" fill="none" opacity="0"/>
      <path id="Vector-8" data-name="Vector" d="M.495.5H.5" transform="translate(11.501 13.2)" fill="none" stroke="#283347" stroke-linecap="round" stroke-linejoin="round" stroke-width="1.5"/>
      <path id="Vector-9" data-name="Vector" d="M.495.5H.5" transform="translate(7.8 13.2)" fill="none" stroke="#283347" stroke-linecap="round" stroke-linejoin="round" stroke-width="1.5"/>
      <path id="Vector-10" data-name="Vector" d="M.495.5H.5" transform="translate(7.8 16.2)" fill="none" stroke="#283347" stroke-linecap="round" stroke-linejoin="round" stroke-width="1.5"/>
    </g>
  </g>
</svg>
