<svg xmlns="http://www.w3.org/2000/svg" width="114" height="114" viewBox="0 0 114 114">
  <g id="Group_125057" data-name="Group 125057" transform="translate(2024 -2510)">
    <rect id="Rectangle_13267" data-name="Rectangle 13267" width="90" height="90" rx="45" transform="translate(-2012 2522)" fill="none" stroke="#fff" stroke-width="24"/>
    <g id="Group_125056" data-name="Group 125056" transform="translate(91.974 -144.33)">
      <path id="Path_387638" data-name="Path 387638" d="M4.024,0H0L0,10.329H4.021A5.09,5.09,0,0,0,9.269,5.162,5.083,5.083,0,0,0,4.024,0ZM3.977,8.382H2.054l0-6.437H3.979A3.116,3.116,0,0,1,7.153,5.163,3.12,3.12,0,0,1,3.977,8.382Z" transform="translate(-2066.006 2661.115) rotate(-3.807)"/>
      <path id="Path_387639" data-name="Path 387639" d="M1.224,2.426A1.2,1.2,0,0,0,2.446,1.215,1.2,1.2,0,0,0,1.223,0,1.2,1.2,0,0,0,0,1.213,1.2,1.2,0,0,0,1.224,2.426ZM.262,11.182H2.2L2.194,3.549H.256Z" transform="translate(-2051.238 2660.33) rotate(9.271)"/>
      <path id="Path_387640" data-name="Path 387640" d="M6.159.015,4.2,5.2,2.207.009,0,.006,3.173,7.641l2,0L8.322.018Z" transform="translate(-2045.236 2665.038) rotate(20.946)"/>
      <path id="Path_387641" data-name="Path 387641" d="M8.058,4.027A3.922,3.922,0,0,0,4.049.012,3.9,3.9,0,0,0,.012,3.965a4.053,4.053,0,0,0,4.233,4.03A4.412,4.412,0,0,0,7.689,6.477l-1.3-1.139A2.68,2.68,0,0,1,4.3,6.276,2.147,2.147,0,0,1,2.118,4.7l5.9.012A5.315,5.315,0,0,0,8.058,4.027Zm-4.02-2.31A1.984,1.984,0,0,1,5.981,3.29L2.1,3.282A1.967,1.967,0,0,1,4.037,1.716Z" transform="matrix(0.815, 0.58, -0.58, 0.815, -2034.024, 2669.703)"/>
      <path id="Path_387642" data-name="Path 387642" d="M.031,10.3l2.063,0L2.073.006.01,0Z" transform="translate(-2017.685 2681.564) rotate(55.356)"/>
      <path id="Path_387643" data-name="Path 387643" d="M4.374.01A3.135,3.135,0,0,0,1.952,1.035V.185L.006.182.018,7.788l1.945,0L1.956,3.615A1.653,1.653,0,0,1,3.734,1.888a1.59,1.59,0,0,1,1.678,1.7L5.418,7.8l1.945,0L7.356,2.967A2.8,2.8,0,0,0,4.374.01Z" transform="translate(-2015.693 2689.432) rotate(67.601)"/>
      <path id="Path_387644" data-name="Path 387644" d="M5.21,3.7V1.923H3.159V0H1.213V1.923H0V3.7H1.213V7.169A2.314,2.314,0,0,0,3.788,9.7,2.864,2.864,0,0,0,5.21,9.376v-1.8a2.314,2.314,0,0,1-1,.253c-.689,0-1.048-.328-1.048-.969V3.7Z" transform="translate(-2009.059 2707.477) rotate(89.049)"/>
      <path id="Path_387645" data-name="Path 387645" d="M4.092,7.955A3.966,3.966,0,0,0,8.2,3.971,3.948,3.948,0,0,0,4.1-.005a3.966,3.966,0,0,0-4.1,3.984A3.948,3.948,0,0,0,4.092,7.955Zm0-1.878A2.05,2.05,0,0,1,2,3.977a2.059,2.059,0,0,1,2.1-2.1,2.041,2.041,0,0,1,2.094,2.1A2.05,2.05,0,0,1,4.094,6.077Z" transform="translate(-2010.974 2717.149) rotate(102.281)"/>
      <path id="Path_387646" data-name="Path 387646" d="M5.193,3.69l0-1.776-2.048,0,0-1.925L1.209,0l0,1.925-1.211,0,0,1.776L1.2,3.7,1.195,7.175A2.3,2.3,0,0,0,3.761,9.707a2.861,2.861,0,0,0,1.421-.331l0-1.806a2.313,2.313,0,0,1-1,.256c-.688,0-1.046-.326-1.045-.968l.006-3.164Z" transform="translate(-2015.858 2736.282) rotate(123.827)"/>
      <path id="Path_387636" data-name="Path 387636" d="M4.355,2.949A3.086,3.086,0,0,0,1.933,4.03L1.942,0,0,0-.024,10.757l1.942,0,.009-4.183a1.671,1.671,0,0,1,1.8-1.737,1.572,1.572,0,0,1,1.654,1.7l-.009,4.213,1.942,0L7.32,5.9A2.773,2.773,0,0,0,4.355,2.949Z" transform="translate(-2021.413 2745.781) rotate(137.305)"/>
      <path id="Path_387637" data-name="Path 387637" d="M8.031,3.991a3.886,3.886,0,0,0-3.991-4A3.938,3.938,0,0,0-.01,3.96,4.016,4.016,0,0,0,4.2,7.976,4.443,4.443,0,0,0,7.653,6.444L6.358,5.31a2.7,2.7,0,0,1-2.09.946A2.126,2.126,0,0,1,2.092,4.689l5.893-.011A5.331,5.331,0,0,0,8.031,3.991Zm-4.009-2.3A1.965,1.965,0,0,1,5.958,3.262L2.08,3.268A1.985,1.985,0,0,1,4.022,1.695Z" transform="translate(-2032.989 2751.579) rotate(152.748)"/>
      <path id="Path_387647" data-name="Path 387647" d="M12.475,0,10.359,7.516,8.227,0h-1.8L4.293,7.516,2.176,0H0L3.22,10.33H5.262L7.3,3.16l2.028,7.171h2.057L14.592,0Z" transform="translate(-2051.279 2761.331) rotate(-179.072)"/>
      <path id="Path_387648" data-name="Path 387648" d="M4.1,8a3.944,3.944,0,0,0,4.08-3.99,3.969,3.969,0,0,0-4.091-4A3.944,3.944,0,0,0,.008,4,3.969,3.969,0,0,0,4.1,8Zm0-1.885A2.061,2.061,0,0,1,2.006,4,2.048,2.048,0,0,1,4.09,1.893a2.052,2.052,0,0,1,2.09,2.113A2.039,2.039,0,0,1,4.1,6.113Z" transform="matrix(-0.95, -0.312, 0.312, -0.95, -2069.222, 2757.608)"/>
      <path id="Path_387649" data-name="Path 387649" d="M4.14.012a2.708,2.708,0,0,0-2.191,1.1l0-.987-1.94,0L.022,7.749l1.94,0L1.955,4.135A1.982,1.982,0,0,1,4.144,2.016h.328l0-2Z" transform="translate(-2081.422 2752.643) rotate(-148.544)"/>
      <path id="Path_387650" data-name="Path 387650" d="M.034,10.76l1.941,0L1.952.006.011,0Z" transform="matrix(-0.754, -0.657, 0.657, -0.754, -2090.693, 2749.843)"/>
      <path id="Path_387651" data-name="Path 387651" d="M6.21.021l.009,4.046A3.307,3.307,0,0,0,3.735,2.971,3.758,3.758,0,0,0,.021,6.949a3.8,3.8,0,0,0,3.73,3.994A3.278,3.278,0,0,0,6.23,9.858l0,.911,1.943,0L8.153.025ZM4.121,9.063a2.065,2.065,0,0,1-2.1-2.109,2.044,2.044,0,0,1,2.088-2.1A2.068,2.068,0,0,1,6.224,6.962,2.048,2.048,0,0,1,4.121,9.063Z" transform="translate(-2096.213 2744.696) rotate(-126.707)"/>
      <path id="Path_387652" data-name="Path 387652" d="M4.11,7.967a3.948,3.948,0,0,0,4.1-3.977A3.966,3.966,0,0,0,4.1.006a3.948,3.948,0,0,0-4.1,3.977A3.966,3.966,0,0,0,4.11,7.967Zm0-1.878a2.059,2.059,0,0,1-2.1-2.1A2.05,2.05,0,0,1,4.1,1.884a2.05,2.05,0,0,1,2.1,2.1A2.041,2.041,0,0,1,4.108,6.088Z" transform="translate(-2103.716 2725.593) rotate(-102.818)"/>
      <path id="Path_387653" data-name="Path 387653" d="M4.206,1.773a2,2,0,0,1,1,.253V.327A2.963,2.963,0,0,0,3.772,0,2.353,2.353,0,0,0,1.2,2.623v.686H0V5.082H1.2V10.91H3.143V5.082H5.059V3.308H3.143V2.742C3.144,2.1,3.518,1.773,4.206,1.773Z" transform="translate(-2108.973 2713.182) rotate(-89.072)"/>
      <path id="Path_387654" data-name="Path 387654" d="M4.039-.006,0,0-.016,10.291l4.039-.006A5.106,5.106,0,0,0,9.3,5.131,5.068,5.068,0,0,0,4.039-.006ZM3.982,8.346l-1.93,0,.01-6.413,1.93,0a3.106,3.106,0,0,1,3.182,3.2A3.129,3.129,0,0,1,3.982,8.346Z" transform="translate(-2106.194 2695.812) rotate(-67.511)" fill="none" stroke="#283347" stroke-width="1"/>
      <path id="Path_387655" data-name="Path 387655" d="M8.082,10.281l2.257,0L6.4-.018,3.965-.012l-4,10.311,2.227,0,.737-2,4.423-.01ZM3.623,6.394,5.156,2.255l1.5,4.133Z" transform="translate(-2100.206 2683.057) rotate(-50.552)" fill="none" stroke="#283347" stroke-width="1"/>
      <path id="Path_387656" data-name="Path 387656" d="M5.406,10.658A5.411,5.411,0,0,0,9.948,8.332l-1.774-1.1A3.3,3.3,0,0,1,5.41,8.67,3.245,3.245,0,0,1,2.1,5.328a3.276,3.276,0,0,1,3.32-3.356A3.27,3.27,0,0,1,8.182,3.4L9.96,2.292A5.362,5.362,0,0,0,5.428-.016,5.3,5.3,0,0,0-.016,5.332,5.251,5.251,0,0,0,5.406,10.658Z" transform="translate(-2090.174 2671.712) rotate(-33.698)" fill="none" stroke="#283347" stroke-width="1"/>
    </g>
  </g>
</svg>
