<svg xmlns="http://www.w3.org/2000/svg" xmlns:xlink="http://www.w3.org/1999/xlink" width="215" height="304.719" viewBox="0 0 215 304.719">
  <defs>
    <linearGradient id="linear-gradient" x1="0.5" y1="0.625" x2="0.5" y2="1" gradientUnits="objectBoundingBox">
      <stop offset="0" stop-color="#fff" stop-opacity="0"/>
      <stop offset="1" stop-color="#fff"/>
    </linearGradient>
    <linearGradient id="linear-gradient-2" y1="0.712" xlink:href="#linear-gradient"/>
  </defs>
  <g id="Group_126714" data-name="Group 126714" transform="translate(-293 -2321)">
    <path id="_01" data-name="01" d="M26.442-165h.415l83.421.1,17.674,17.674.1,38.036h-.1v65.235L110.278-26.281H26.342L8.766-43.959V-147.324Zm83.007,2.1L27.269-163l-16.5,16.5V-44.784l16.408,16.5h82.275l16.5-16.5v-66.406h.095l-.094-35.206Zm55.665-2.1h41.063V-26.281h-60.5v-36.18h19.434Zm39.063,2H167.113V-60.461H147.68v32.18h56.5ZM47.828-130.823l41.063.1v70.259H47.828Zm39.063,2.1-37.062-.093v66.357H86.891Z" transform="translate(293 2608)" fill="url(#linear-gradient)"/>
    <path id="_01-2" data-name="01" d="M26.442-165h.415l83.421.1,17.674,17.674.1,38.036h-.1v65.235L110.278-26.281H26.342L8.766-43.959V-147.324Zm83.007,2.1L27.269-163l-16.5,16.5V-44.784l16.408,16.5h82.275l16.5-16.5v-66.406h.095l-.094-35.206Zm55.665-2.1h41.063V-26.281h-60.5v-36.18h19.434Zm39.063,2H167.113V-60.461H147.68v32.18h56.5ZM47.828-130.823l41.063.1v70.259H47.828Zm39.063,2.1-37.062-.093v66.357H86.891Z" transform="translate(293 2652)" fill="url(#linear-gradient-2)"/>
    <text id="_01-3" data-name="01" transform="translate(293 2529)" fill="#fff" font-size="200" font-family="Cyberfall"><tspan x="0" y="0">01</tspan></text>
  </g>
</svg>
