<svg xmlns="http://www.w3.org/2000/svg" width="72" height="72" viewBox="0 0 72 72">
  <g id="Group_344163" data-name="Group 344163" transform="translate(-272 -639)">
    <g id="Group_66883" data-name="Group 66883" transform="translate(272 639)">
      <rect id="Rectangle_2153" data-name="Rectangle 2153" width="72" height="72" rx="35" fill="#283347"/>
    </g>
    <g id="vuesax_linear_filter-search" data-name="vuesax/linear/filter-search" transform="translate(294 661)">
      <g id="filter-search" transform="translate(0 0)">
        <g id="Group" transform="translate(3.862 2.345)">
          <path id="Vector" d="M12.845,19.9a2.62,2.62,0,0,1-1.062,2.007l-1.645,1.062a2.4,2.4,0,0,1-3.652-2.007V14.723a4.473,4.473,0,0,0-.945-2.473L1.062,7.537A3.877,3.877,0,0,1,0,5.18V2.473A2.393,2.393,0,0,1,2.357,0H17.92a2.365,2.365,0,0,1,2.357,2.357v2.59A4.4,4.4,0,0,1,19.1,7.653" fill="none" stroke="#fff" stroke-linecap="round" stroke-linejoin="round" stroke-width="2"/>
        </g>
        <g id="Group-2" data-name="Group" transform="translate(15.015 11.807)">
          <path id="Vector-2" data-name="Vector" d="M7.467,3.733A3.733,3.733,0,1,1,3.733,0,3.733,3.733,0,0,1,7.467,3.733Z" fill="none" stroke="#fff" stroke-linecap="round" stroke-linejoin="round" stroke-width="2"/>
          <path id="Vector-3" data-name="Vector" d="M1.167,1.167,0,0" transform="translate(7 7)" fill="none" stroke="#fff" stroke-linecap="round" stroke-linejoin="round" stroke-width="2"/>
        </g>
        <path id="Vector-4" data-name="Vector" d="M0,0H28V28H0Z" transform="translate(28 28) rotate(180)" fill="none" opacity="0"/>
      </g>
    </g>
  </g>
</svg>
