<svg xmlns="http://www.w3.org/2000/svg" width="110" height="110.002" viewBox="0 0 110 110.002">
  <g id="Group_66877" data-name="Group 66877" transform="translate(-409.611 -96.325)">
    <path id="Path_173" data-name="Path 173" d="M443.093,96.325v98.75l-11.274-7.682-10.927-7.441-9.632-6.565a3.741,3.741,0,0,1-1.65-3.086V113.395h11.282v53.148l10.927,7.441v-66.67H409.611V96.325Z" transform="translate(0 0)" fill="#fff"/>
    <path id="Path_174" data-name="Path 174" d="M459,96.325V198.217l7.233,4.931,4.04,2.751V146.061h10.981v60.266l4.665-3.179,6.609-4.5V96.325Zm22.255,38.747H470.275V107.314h10.981Z" transform="translate(-11.304 0)" fill="#fff"/>
    <path id="Path_175" data-name="Path 175" d="M542.334,96.325v38.747H531.06V107.314H520.173v66.858l10.888-7.419V146.061h11.274v24.465a3.741,3.741,0,0,1-1.65,3.087l-9.624,6.557-10.888,7.419-11.282,7.689V96.325Z" transform="translate(-22.723 0)" fill="#fff"/>
  </g>
</svg>
