<svg id="Group_109797" data-name="Group 109797" xmlns="http://www.w3.org/2000/svg" width="145" height="110" viewBox="0 0 145 110">
  <g id="Group_109488" data-name="Group 109488" transform="translate(0 1.277)">
    <path id="Path_396902" data-name="Path 396902" d="M245.953,253.666l3.441,1.6,2.459,1.293,3.467,1.9,2.54-.975,1.693,1.885s4.865,1.1,5,1.158.16.969.16.969l3.333,4.712,3.845,1.136,2.768,5.783,5,.97,2.984-1.831,1.747-.223,3.71,1.7,3.951,2.867,4.778-.768,2.419,1.434,3.528.908,3.327,3.207s3.789.489,3.931.489,4.113,2.14,4.113,2.14l3.669.283,5.926.262,1.512-1.737,3.065.2L333,284.507l4.293,1.535,7.016-1.959,2.258,1.959,2.964-.425,3.286-3.251,4.333-1.818,3.488-2.14,5.222-.949,3.689-4.907,1.572-1.979,2.9-1.192,1.29-4.24-1.15-3.473.605-1.474-.161-1.8.262-.727.444-2.241-.767-1.029v-1.434s-3.118-3.984-3.064-4.311l2.741-2.478-2.661-19.22L358.66,211.4,344.9,205.8l.081-2.53-5.162-5.439-1.4-2.854-1.4-1.938-2.688-3.877-1.881-3.177-6.613-2.823-3.709-.983-1.851-2.961-6.344-.969-3.848,1.669-1.441,1.992-4.741-1.023-7.016-.861-2.983,2.1-2.057,2.34-2.862.333-1.694-.421-3.1,1.632-5.04-3.48-3.817-1.024-1.828.593-2.123-1.023s-2.339-.161-2.447-.161-3.091,2.584-3.091,2.584l.161.83-5.7,2-4.3,4.335-.054,1.862-5.725.346-.646,2.666.081,1.669-3.172-1.185-3.79,1.211-.86,1.931-2.15.466s-1.2,2.49-5.8,2.046-2.379,2.988-2.379,2.988l5.967-.181,2.016.323,1.834,3.17,4.65.431,3.226,3.177s5.914,1.158,5.995,1.184a24.253,24.253,0,0,0,2.553,1.05c.027-.107,5.215-3.015,5.215-3.015l4.6,1.824,1.747,2.476,2.822,3.171-.282.93-3.71.686-2.207,1.485-2.439-.212-5.688,1.945-1.909,4.523.08,2.881-2.581.189-1.075.4-2.231-3.285s-3.924.161-3.844.054a8.6,8.6,0,0,0-1.169.538l-1.663-.313-1.321-.272-.847.585-1.28.292s-2.886.072-4.144.007c0,0-1.86-.488,1.463,3.6a11.381,11.381,0,0,0,3.185,2.746l3.276,1.044,1.976,2.995,2.056,2.06,3.084,3.816,1.633,1.48-.9,1.426-.418,1.5-2.256-1.2-3.024.148a9.451,9.451,0,0,0-1.734,1.051c-.927.7-4.745,3.379-2.287,3.427l2.583.159,1.383.075Z" transform="translate(-230.977 -178.245)" fill="#a5a5a5"/>
  </g>
  <path id="Path_462658" data-name="Path 462658" d="M25.789.015A25.818,25.818,0,1,1,.015,25.817,25.84,25.84,0,0,1,25.789.015Z" transform="translate(120.163 98.082) rotate(-156.854)" fill="#fff"/>
  <g id="Group_109489" data-name="Group 109489" transform="translate(102.699 59.694)">
    <path id="Path_396903" data-name="Path 396903" d="M280.208,260.573c.1-.035.205-.053.308-.081l.155-.039.159-.024c.106-.014.212-.035.32-.043a4.647,4.647,0,0,1,1.3.075,4.817,4.817,0,0,1,1.244.457,5.027,5.027,0,0,1,1.057.809,4.853,4.853,0,0,1,.768,1.082,4.711,4.711,0,0,1,.41,1.241,4.848,4.848,0,0,1,.033,1.277,4.633,4.633,0,0,1-.317,1.2,2.774,2.774,0,0,1-.128.272,2.392,2.392,0,0,1-.143.263l-.158.249c-.053.082-.116.151-.172.227a4.6,4.6,0,0,1-.393.438l-.026.027-.013.013-.007.007s.014-.014,0,0l-.053.046-.106.09c-.072.059-.137.125-.212.177a4.509,4.509,0,0,1-1.856.812c-.156.021-.31.042-.459.056s-.3.014-.44.006-.283-.009-.416-.031-.265-.035-.388-.066a4.487,4.487,0,0,1-1.234-.45l-.228-.127c-.069-.042-.125-.087-.183-.125l-.158-.108c-.048-.034-.094-.08-.133-.112-.146-.125-.226-.195-.24-.208l-.2-.214c-.033-.037-.075-.075-.113-.122l-.122-.158c-.043-.058-.094-.117-.141-.186l-.139-.223a4.3,4.3,0,0,1-.514-1.241,4.42,4.42,0,0,1,.749-3.7,4.453,4.453,0,0,1,1.89-1.45Zm-.923,7.312a3.99,3.99,0,0,0,5.584-.858,5.409,5.409,0,0,1-4.413-.763,5.339,5.339,0,0,1-2.027-3.972A4,4,0,0,0,279.285,267.885Z" transform="translate(-277.147 -260.368)" fill="#283347"/>
  </g>
  <g id="Group_109490" data-name="Group 109490" transform="translate(115.424 25.034)">
    <path id="Path_396904" data-name="Path 396904" d="M259.7,232.6c-.2-.2-.489-.5-.842-.874s-.776-.833-1.242-1.36-.982-1.12-1.54-1.765l-.857-1.011c-.146-.176-.3-.349-.454-.528s-.3-.364-.469-.543c-.32-.364-.643-.741-.986-1.115s-.687-.76-1.038-1.153l-1.084-1.18c-.187-.2-.376-.391-.566-.589l-.282-.3-.293-.292-.588-.589c-.2-.2-.406-.383-.608-.576s-.4-.389-.618-.57l-.636-.554-.318-.277-.328-.265-.654-.53c-.218-.178-.447-.336-.67-.506s-.446-.334-.671-.5l-.686-.464-.339-.235-.169-.117-.173-.109-.689-.43c-.229-.142-.452-.289-.686-.415l-.688-.386c-.229-.126-.452-.26-.681-.371l-.677-.344-.334-.169c-.109-.057-.22-.112-.332-.16l-1.3-.582c-.427-.174-.844-.332-1.244-.491s-.793-.281-1.163-.41l-.544-.185c-.177-.06-.348-.12-.518-.164l-.947-.266c-.295-.082-.562-.169-.81-.218-.494-.109-.883-.206-1.149-.268l-.408-.1.418.015c.273.011.675.021,1.187.047.258,0,.537.043.845.073l1,.108c.179.016.361.048.548.08l.579.1c.4.07.817.132,1.246.241s.882.2,1.347.318l1.422.423c.124.035.245.077.366.122l.368.13.75.267c.256.085.5.194.757.3l.765.324c.26.1.511.231.768.353l.774.372c.517.255,1.023.545,1.542.827.254.148.5.3.758.457s.512.3.76.47l.746.5.374.249c.124.086.244.175.365.262l.727.53c.245.174.473.366.709.549s.473.366.7.557l.678.576c.455.379.873.789,1.3,1.184.207.2.411.4.609.61s.4.405.585.617.372.418.555.625.35.423.523.631.34.417.5.629l.465.629c.3.418.58.834.847,1.237.132.2.254.407.377.605.061.1.124.2.18.3l.167.3a19.05,19.05,0,0,1,1.071,2.206,16.33,16.33,0,0,1,.614,1.8,10.889,10.889,0,0,1,.264,1.21c.043.285.053.44.053.44l-.082-.079Z" transform="translate(-231.414 -211.642)" fill="#283347"/>
  </g>
  <g id="Group_109491" data-name="Group 109491" transform="translate(5.773 54.352)">
    <path id="Path_396905" data-name="Path 396905" d="M388.715,252.988c.257.272.5.556.736.842a10.261,10.261,0,0,0,2.058,2.065,7.874,7.874,0,0,0,4.668,1.165c.065,0,.133,0,.2-.006a.1.1,0,0,1,.051.189c-.038.017-.076.031-.115.048-.2.085-.392.161-.589.227a8.658,8.658,0,0,0,1.232,2.225c.884,1.125,3.352,3.247,4.565,1.4a.138.138,0,0,1,.1-.061.141.141,0,0,1,.159.1,1.036,1.036,0,0,1,.039.158,1.391,1.391,0,0,1-.78,1.409c.019.113.039.227.069.344a6.066,6.066,0,0,0,1.52,2.674,11.341,11.341,0,0,0,4.438,3.051,7.908,7.908,0,0,1-1.4-2.238c-.189-.483.5-.812.831-.485,1.172,1.167,2.058,2.583,3.277,3.72s3.193,2.945,4.988,2.2c.241-.1.367.273.17.4-1.722,1.145-3.635-.015-5.072-1.089-.543-.405-1.1-.851-1.636-1.336a7.811,7.811,0,0,1-4.689-1.026,3.539,3.539,0,0,0-.857,3.07l0,.022a.081.081,0,0,1-.148.063,2.791,2.791,0,0,1-.293-.769l0-.013a6.3,6.3,0,0,0-3.164-1.42,5.281,5.281,0,0,0-1.992.245c-.631.2-1.123.634-1.743.823-.035.011-.07.023-.107.033a.041.041,0,0,1-.045-.06c.582-1.318,2.785-1.77,4.077-1.674a5.643,5.643,0,0,1,2.924,1.076,3.609,3.609,0,0,1,.7-1.786,12.462,12.462,0,0,1-4.742-6.186c-.008-.023-.01-.044-.016-.067-.185-.1-.359-.2-.516-.3a7.173,7.173,0,0,1-3.17-4.2,6.1,6.1,0,0,1-3.465-.631,5.081,5.081,0,0,1-3.057-3.858A.47.47,0,0,1,388.715,252.988Z" transform="translate(-387.917 -252.859)" fill="#283347"/>
  </g>
  <g id="Group_109492" data-name="Group 109492" transform="translate(0.26 24.566)">
    <path id="Path_396906" data-name="Path 396906" d="M353.6,213.265a21.409,21.409,0,0,1,4.51.068c.792.042,1.659.024,2.484.138a5.3,5.3,0,0,1,.105-1.156.491.491,0,0,1,.94,0c.031.1.06.2.089.308.481,1.76.6,3.737,2.62,4.459a5.671,5.671,0,0,0,5.919-1.809c.124-.14.348.04.256.2a5.944,5.944,0,0,1-1.454,1.659,7.11,7.11,0,0,0,2.714,3.436c2.932,1.792,5.642-.154,6.627-3.1l0-.008a.163.163,0,0,1,.116-.1A5.067,5.067,0,0,1,377.5,217a2.926,2.926,0,0,1-1.687-2.5.149.149,0,0,1,.222-.128,19.648,19.648,0,0,0,2.066,1.283,4.387,4.387,0,0,0,3.15.115c2.175-.723,3.609-2.744,4.474-4.762.018-.041.075-.01.068.028a10.465,10.465,0,0,1-1.213,3.37c.044.134.089.267.128.4a8.714,8.714,0,0,1,.341,2.5,9.445,9.445,0,0,0,1.574,2.017c1.845,1.813,4.128,2.148,6.522,2.7.01,0,.014.019,0,.023a4.735,4.735,0,0,1-1.231.374,8.447,8.447,0,0,0,1.109,2.926,9.362,9.362,0,0,0,4.218,3.383c.1-.036.2-.073.3-.107a18.092,18.092,0,0,1,5.328-.979A16.284,16.284,0,0,1,397.085,223c-.24-.309.087-.9.469-.609a38.006,38.006,0,0,0,5.563,4.069,12.227,12.227,0,0,0,7.084,1.294c.327-.028.351.446.073.543a8.887,8.887,0,0,1-5.136.147,20.578,20.578,0,0,0-7.3,1.6,25.125,25.125,0,0,0-3.794,2.007,20.293,20.293,0,0,1-3.428,2.244c-.484.186-.824-.423-.624-.813.673-1.308,2.18-2.193,3.4-2.934a20.8,20.8,0,0,1,2.561-1.327,6.623,6.623,0,0,1-.822-.318,12.2,12.2,0,0,1-2.315.523l-.24.038a8.938,8.938,0,0,0-3.013.832,4.188,4.188,0,0,0-1.811,2.223c-.032.068-.065.136-.1.207a.143.143,0,0,1-.246,0,1.785,1.785,0,0,1-.173-.5,1.833,1.833,0,0,1-.006-.653,10.551,10.551,0,0,0-3.691,0,7.042,7.042,0,0,0-3.751,2.32,6.854,6.854,0,0,0-.415,7.852c.011.016.019.034.031.05.109.161-.123.312-.255.2a5.439,5.439,0,0,1-.416-.4,5.334,5.334,0,0,1-.773-1.077,3.916,3.916,0,0,0-1.619-.166,5.117,5.117,0,0,0-3.557,1.993c-.05.063-.1.127-.145.193a.285.285,0,0,1-.491-.288,6.411,6.411,0,0,1,.82-1.13,6.1,6.1,0,0,1,.656-.622,3.479,3.479,0,0,0-.156-.521,4.135,4.135,0,0,0-2.062-2.241c-1.889-.883-3.711-.017-5.12,1.292a.244.244,0,0,1-.382-.3,3.7,3.7,0,0,1,.294-.474,2.454,2.454,0,0,0-1.372-.5c-1.546-.1-2.366.967-3.275,2.007l-.056.065c-.062.071-.168.01-.173-.073a2.2,2.2,0,0,1,.376-1.374,9.614,9.614,0,0,1-4.128-.241.019.019,0,0,1,.005-.036c.859-.113,1.687-.1,2.552-.143.692-.034,1.379-.134,2.069-.161a4.14,4.14,0,0,1,2.7-1.025,3.941,3.941,0,0,1,2.063.686,5.081,5.081,0,0,1,4.8-.721,6.236,6.236,0,0,1,3.059,3.015,5.082,5.082,0,0,1,1.379-.408,5.915,5.915,0,0,1,1.283-.036,7.031,7.031,0,0,1,1.151-5.929c1.9-2.554,6.066-4.228,9.2-3.057a4.962,4.962,0,0,1,1.732-1.393,15.183,15.183,0,0,1,3.224-.881,7.139,7.139,0,0,1-1.658-1.717,11.442,11.442,0,0,1-1.795-3.6,6.486,6.486,0,0,1-2.443-.693,10.454,10.454,0,0,1-1.927-1.172,4.378,4.378,0,0,1-.617,1.028,5.887,5.887,0,0,1-2.536,1.783,6.008,6.008,0,0,1-5.644-.9c-1.469,1.03-3.913.757-5.393.053-1.651-.785-3.555-2.6-3.677-4.531a.78.78,0,0,1,.006-.154,5.66,5.66,0,0,1-3.236.026,4.731,4.731,0,0,1-3.185-3.881,19.462,19.462,0,0,1-2.56.211,16.335,16.335,0,0,1-4.51-.075C353.043,214.312,353,213.361,353.6,213.265Zm28.578,7.774c1.841-1.435,2.255-3.9,2.057-6.12a6.069,6.069,0,0,1-3.16,2.345,4.744,4.744,0,0,1-2.391.132.142.142,0,0,1,.046.115,5.65,5.65,0,0,1-.521,2.187,5.427,5.427,0,0,1-.822,1.273C378.95,221.892,380.5,222.347,382.18,221.039Z" transform="translate(-353.166 -210.984)" fill="#283347"/>
  </g>
  <g id="Group_109493" data-name="Group 109493" transform="translate(104.694 27.276)">
    <path id="Path_396907" data-name="Path 396907" d="M286.777,214.815a.011.011,0,1,1,0-.021A.011.011,0,0,1,286.777,214.815Z" transform="translate(-286.766 -214.794)" fill="#112e1f"/>
  </g>
  <g id="Group_109494" data-name="Group 109494" transform="translate(25.466 57.449)">
    <path id="Path_396908" data-name="Path 396908" d="M367.759,278.491c.038-.016.055.037.035.062a3.909,3.909,0,0,1-.3.339,5.5,5.5,0,0,0,2.862.517,6.307,6.307,0,0,0,2.1-.59,7.684,7.684,0,0,1-4.56-3c-.294-.5.273-.94.731-.732.974.444,1.823,1.182,2.763,1.7a10.7,10.7,0,0,0,2.75,1.056.4.4,0,0,1,.04-.017.068.068,0,0,1,.085.044c.081.017.162.037.244.053a15.007,15.007,0,0,0,6.146-.171c.176-.038.3.211.127.3a10.639,10.639,0,0,1-6.274,1.191c-.489,1.222-2.106,1.84-3.307,1.98a7.451,7.451,0,0,1-4.386-.925,5.354,5.354,0,0,1-3.263.767,6.653,6.653,0,0,1-3.83-1.354c-1.481,1.229-4.022.4-5.509-.426-1.818-1.011-4.039-3.355-4.076-5.605-1.146-.009-2.344-1.133-2.986-1.911a6.546,6.546,0,0,1-1.66-4.032c-.869-.228-1.628-1.518-1.93-2.174a6.459,6.459,0,0,1-.521-3.548,5.885,5.885,0,0,1-2.382-1.256,6.954,6.954,0,0,1-1.834-2.127,7.475,7.475,0,0,1-.751-.89c-.2-.286.2-.667.479-.479A19.691,19.691,0,0,0,343.733,260a15.552,15.552,0,0,0,3.02.541c.948.08,1.885-.1,2.823-.043a.149.149,0,0,1,.075.275,7.663,7.663,0,0,1-4.584.628c-.014.087-.029.174-.041.26a5.08,5.08,0,0,0,.769,3.956,4.115,4.115,0,0,0,3.619,1.6c.091,0,.181-.012.273-.023.413-.047.5.632.1.725a5.623,5.623,0,0,1-.59.1,5.429,5.429,0,0,1-1.446-.02,5.74,5.74,0,0,0,1.126,2.838,6.472,6.472,0,0,0,4.655,2.386c.043,0,.087.007.13.008.157.006.211.261.039.29-.144.024-.288.043-.433.06a6.948,6.948,0,0,1-1.015.033,8.2,8.2,0,0,0,.786,1.5,7.473,7.473,0,0,0,2.544,2.362c2.27,1.236,4.672.91,7,.1l.183-.063c.158-.057.277.167.161.277a5.538,5.538,0,0,1-.724.575,5.88,5.88,0,0,1-.534.322,5.611,5.611,0,0,0,2.193.608A8.618,8.618,0,0,0,367.759,278.491Z" transform="translate(-338.021 -257.212)" fill="#283347"/>
  </g>
  <g id="Group_109495" data-name="Group 109495" transform="translate(52.763 58.567)">
    <path id="Path_396909" data-name="Path 396909" d="M341.88,259.331c.983.25,1.884.728,2.877.965a11.847,11.847,0,0,0,3.221.309,13.064,13.064,0,0,0,6.272-1.8c.14-.083.313.125.179.233a11.809,11.809,0,0,1-6.271,2.653c-2.177.213-5.054,0-6.833-1.4C340.852,259.914,341.372,259.2,341.88,259.331Z" transform="translate(-341.139 -258.783)" fill="#283347"/>
  </g>
  <g id="Group_109496" data-name="Group 109496" transform="translate(41.298 18.144)">
    <path id="Path_396910" data-name="Path 396910" d="M359.278,203.757a15.973,15.973,0,0,0-4.067,2.3c-1.1.86-2.025,2.335-3.3,2.866-.572.238-1.038-.432-.929-.93.309-1.411,2.163-2.568,3.305-3.307a17.437,17.437,0,0,1,4.669-2.107,16.652,16.652,0,0,1,9.783.229.074.074,0,0,1-.039.142A16.328,16.328,0,0,0,359.278,203.757Z" transform="translate(-350.964 -201.957)" fill="#283347"/>
  </g>
  <g id="Group_109497" data-name="Group 109497" transform="translate(2.693 0)">
    <path id="Path_396911" data-name="Path 396911" d="M237.722,252.188a9.779,9.779,0,0,1,2.576-.116c.409.009.837-.021,1.255,0a2.775,2.775,0,0,1-.1-.558c-.033-.469.567-.516.795-.216.116.156.226.312.332.467a5.358,5.358,0,0,0,1.837,1.955,4.638,4.638,0,0,0,4.14.056.2.2,0,0,1,.2.351,5.888,5.888,0,0,1-.5.314,5.539,5.539,0,0,0,2.553,2.707c2.231.907,3.28-1.177,4.229-2.776l0-.006a.02.02,0,0,1,.037.016c-.033.2-.079.406-.13.606a6.643,6.643,0,0,1-.322.973c.053.1.109.2.17.3a6.685,6.685,0,0,0,2.033,2.062,7.881,7.881,0,0,0,6.43.807.061.061,0,0,1,.047.112,7.044,7.044,0,0,1-1.081.531,7.094,7.094,0,0,0,1.207,3.109c1.241,1.89,4.3,4.1,6.024,1.954-.187-.065-.374-.136-.557-.218-2.1-.936-4.093-2.955-4.218-5.346a.5.5,0,0,1,.926-.251c1.048,1.725,1.966,3.371,3.834,4.336a7.868,7.868,0,0,0,6.6.133c.228-.09.328.248.156.371a7.488,7.488,0,0,1-6.37,1.095,2.6,2.6,0,0,1-.4.652c.036.258.08.514.139.763a13.492,13.492,0,0,0,2.1,4.94c2.955,3.986,7.6-.2,9.646-2.934.228-.306.741-.031.526.307-.179.281-.377.571-.588.864a4.133,4.133,0,0,0,.474,1.182,3.164,3.164,0,0,0,4.248,1.237l.025-.012a.1.1,0,0,1,.123.16,3.067,3.067,0,0,1-.7.58,2.8,2.8,0,0,1-.339.178,13.522,13.522,0,0,0,1.006.994,6.966,6.966,0,0,0,2.708,1.47,4.95,4.95,0,0,0,5.24-2.207.082.082,0,0,1,.151.041,2.506,2.506,0,0,1-.172.858,5.378,5.378,0,0,0,1.093,1.376,6.4,6.4,0,0,0,5.095,1.605c.205-.023.246.314.048.36-.088.02-.176.038-.265.054a6.121,6.121,0,0,0,1.281,1.864,5.228,5.228,0,0,0,5.767.985l.028-.012c.058-.029.131.048.075.1-.085.07-.171.132-.257.195.154.115.3.229.446.344a6.613,6.613,0,0,0,2.986,1.677,5.65,5.65,0,0,0,4.9-1.312,4.611,4.611,0,0,1-2.336-1.709.3.3,0,0,1,.406-.406c1.471.991,2.91,1.863,4.764,1.664,1.667-.179,2.716-1.157,4-2.091a.089.089,0,0,1,.13.1,3.758,3.758,0,0,1-.718,1.2,2.909,2.909,0,0,1,.237.442l.882.356a10.626,10.626,0,0,0,2.452.737,13.2,13.2,0,0,0,4.645-.194.062.062,0,0,1,.059.1,3.853,3.853,0,0,1-.435.369,4.451,4.451,0,0,0,1.655,1.58,8.885,8.885,0,0,0,3.782,1.056,10.866,10.866,0,0,0,7.3-2.32.142.142,0,0,1,.2.2c-.151.167-.308.326-.468.482a4.82,4.82,0,0,0,1.956,1.7c1.449.631,2.586-.206,3.522-1.286,1.1-1.269,1.951-2.48,1.615-4.246l0,0c0-.021.023-.03.035-.013a2.7,2.7,0,0,1,.4.752,7.907,7.907,0,0,0,2.76-.013,4.947,4.947,0,0,0,2.091-1.081,6.258,6.258,0,0,0,1.228-1.87.184.184,0,0,1,.334.044,2.041,2.041,0,0,1,.052.265,10.551,10.551,0,0,0,6.077-1.549,13.891,13.891,0,0,0,4.753-6.446c-1.165.553-2.763.739-3.666-.139a.5.5,0,0,1,.352-.85c.55.008,1.044.235,1.6.252a3.29,3.29,0,0,0,1.864-.51A3.9,3.9,0,0,0,368.4,264.3c-.011-.107.149-.119.18-.025a3.847,3.847,0,0,1-1.22,4.356c-.039.03-.082.06-.124.089-.027.17-.055.339-.087.509a4.076,4.076,0,0,0,3.684-2.269c.989-2.091.2-5.211-1.315-6.852-.059-.064.021-.186.1-.128a5.711,5.711,0,0,1,.646.564,1.861,1.861,0,0,0,.452-.933,4.113,4.113,0,0,0-.587-3.1c-.111-.149.131-.329.256-.2a3.21,3.21,0,0,1,.327.417,1.475,1.475,0,0,0,.516-.45,1.776,1.776,0,0,0-.077-2.066,2,2,0,0,1-.671.507c-.075.036-.183-.043-.125-.127a1.607,1.607,0,0,0-.233-2.281,2.264,2.264,0,0,0-.226-.189,37.411,37.411,0,0,1-12.411,17.86,2.846,2.846,0,0,1,2.454,1.906.128.128,0,0,1-.19.132l-.105-.07c-1.048-.706-1.918-1.53-3.387-1.163a3.506,3.506,0,0,0-1.895,1.334c.271.192.531.4.781.618.385.337.746.694,1.079,1.034.126.129-.067.3-.209.189l-.087-.07c-1.175-.96-2.639-2.181-4.343-1.918a2.389,2.389,0,0,0-2.1,1.985,6.724,6.724,0,0,1,1.038.588c.032.022.065.041.1.064.072.052-.006.164-.089.139l-.125-.036a10.8,10.8,0,0,0-7.306.1,10.334,10.334,0,0,0-3.64,2.749q.2.161.392.325a6.51,6.51,0,0,1,2.04.567.222.222,0,0,1-.17.4,5.858,5.858,0,0,0-3.526-.144,16.943,16.943,0,0,0-2.88,1.59.335.335,0,0,1-.454-.455c.709-1.592,2.671-2.113,4.493-2.009a9.718,9.718,0,0,0-4.574-1.645,5.164,5.164,0,0,0-2.29.519,3.782,3.782,0,0,0-.883.644,1.621,1.621,0,0,1,.31.347c.038.058-.012.12-.08.125a18.449,18.449,0,0,0-2.687-.052,4.84,4.84,0,0,0-1.759.848l-.05.034a6.33,6.33,0,0,1-.08.672c-.013.077-.14.053-.144-.019,0-.016,0-.031,0-.048a5.068,5.068,0,0,0-1.975-3.873,4.073,4.073,0,0,0-3.323-.447,3.269,3.269,0,0,1,.283.975c.012.1-.16.137-.206.05a4.84,4.84,0,0,0-1.882-2.111,2.957,2.957,0,0,0-1.3-.333,3.619,3.619,0,0,1-.187.924c-.012.036-.023.072-.037.106a.132.132,0,0,1-.253-.031l-.023-.207a7.539,7.539,0,0,0-.976-3.51,5.949,5.949,0,0,0-2.795-2.016.4.4,0,0,1-.067-.049.329.329,0,0,1-.107-.131.386.386,0,0,1,.379-.5,3.263,3.263,0,0,1,1.523.358,9.3,9.3,0,0,0-.511-2.731,4.268,4.268,0,0,0-2.067-2.47,3.8,3.8,0,0,0-3.086.136A6.275,6.275,0,0,1,312.072,265c.1.147-.111.277-.232.179a7.191,7.191,0,0,0-4.721-1.774,6.306,6.306,0,0,0-2.523.6c-.409.2-.768.46-1.152.684a14.32,14.32,0,0,1,1.543,1.036c.146.112.021.354-.148.255a14.366,14.366,0,0,0-2.052-.994.4.4,0,0,1-.3-.113,15.435,15.435,0,0,0-5.083-.928,13.9,13.9,0,0,0-3.628.428c-1.216.311-2.357,1.088-3.576,1.287a.558.558,0,0,1-.538-.925,7,7,0,0,1,3.6-1.546,15.2,15.2,0,0,1,4.142-.33,13.486,13.486,0,0,1,5.036,1.3,3.923,3.923,0,0,1,1.828-1.36,7.735,7.735,0,0,0-3.385-2.035c-1.675-.455-3.1.038-4.738.333a.464.464,0,0,1-.354-.844c1.448-1.117,3.705-1.033,5.365-.478a6.65,6.65,0,0,1,3.6,2.852,7.232,7.232,0,0,1,2.73-.3,6.393,6.393,0,0,1,2.535.787l.018-.022a3.12,3.12,0,0,1,.918-.676,2.429,2.429,0,0,0-.736-1.211c-1.123-1-2.441-.6-3.77-.337l-.064.013c-.057.011-.123-.047-.083-.1a2.464,2.464,0,0,1,.67-.585c.084-.051.171-.1.259-.139a7.353,7.353,0,0,0-.088-1.314,8.763,8.763,0,0,0-1-2.785,9.179,9.179,0,0,0-4.19-3.416l-.222-.11c-.136-.067-.064-.24.074-.248.035,0,.069,0,.1,0a5.224,5.224,0,0,1,.7.019c.009-.017.02-.034.029-.052a5.831,5.831,0,0,0,.634-2.609,4.081,4.081,0,0,0-2.4-3.651l-.034-.02a.063.063,0,0,1,.011-.116.1.1,0,0,1,.026-.009,4.273,4.273,0,0,1,.528.018,3.023,3.023,0,0,0,.244-1.135c0-1.151-.669-1.767-1.453-2.563a.05.05,0,0,1,.038-.085,1.671,1.671,0,0,1,.415.019,1.725,1.725,0,0,0,.112-.175,4.743,4.743,0,0,0,.207-3.014,12.388,12.388,0,0,0-1.745-4.422c-.082-.132.112-.269.232-.161q.153.137.3.281a9.278,9.278,0,0,0,1.607-2.423,7.8,7.8,0,0,0,.121-6.173c-.064-.145.184-.226.269-.1s.156.234.227.354a4.529,4.529,0,0,0,1.326-1.123,2.97,2.97,0,0,0,.121-3.966c-.155-.165.077-.37.261-.235a3.3,3.3,0,0,1,.781.813,3.362,3.362,0,0,0,.937-.65,2.68,2.68,0,0,0,.857-1.576,3.13,3.13,0,0,1-1.522-.307.119.119,0,0,1-.07-.1.137.137,0,0,1,.119-.142.1.1,0,0,1,.026,0,4.309,4.309,0,0,0,3.586-1.833,6.646,6.646,0,0,0,.854-1.6,7.817,7.817,0,0,0,.547-1.45.358.358,0,0,1,.687-.085,2.611,2.611,0,0,1,.165.943,3.637,3.637,0,0,0,.491.014c2.13-.1,3.555-1.588,4.673-3.07-.07.047-.141.094-.211.137a6.418,6.418,0,0,1-4.677.84,6.411,6.411,0,0,1-2.079,1.534c-1.479.659-3.96.722-4.833-.895a10.6,10.6,0,0,1-4.824.359,13.83,13.83,0,0,1-7.592-3.678c-.437-.425.116-1.063.625-.811,2.229,1.1,4.282,2.532,6.728,3.148a11.183,11.183,0,0,0,3.54.294c1.141-.084,2.167-.6,3.282-.721a.074.074,0,0,1,.064.111,3.074,3.074,0,0,1-.414.462l.081.036a5.437,5.437,0,0,0,1.092.422,3.654,3.654,0,0,0,2.283-.282,10.449,10.449,0,0,0,2.851-2.478c.06-.058.122-.115.184-.172s.168.009.167.09a2.924,2.924,0,0,1-.049.479,3.307,3.307,0,0,1-.131.516,5.018,5.018,0,0,0,1.721.07,5.277,5.277,0,0,0,1.693-.541c.472-.245,1.849-1.258,1.083-1.945a.051.051,0,0,1,.048-.088,1.111,1.111,0,0,1,.744.989,5.663,5.663,0,0,0,.841-.155c1.431-.38,3.509-1.628,3.8-3.274-2.578,1.835-6.889,1.624-8.729-1.009a.4.4,0,0,1-.075-.219,9.38,9.38,0,0,1-1.287.29c-2.612.384-6.005.427-8.156-1.349a.54.54,0,0,1,.377-.913c2.208.073,4.3.86,6.536.816,2.062-.04,3.757-.3,5.267-1.761a.056.056,0,0,1,.092.024c.277,1.231-.751,2.058-1.93,2.566,1.673,1.081,3.21,1.884,5.3,1.534,1.953-.329,3.14-1.556,4.428-2.945.053-.058.137,0,.124.072a4.649,4.649,0,0,1-1.659,2.676,2.7,2.7,0,0,1-.06,1.462,3.1,3.1,0,0,0,2.657-.336l.575-.436a5.373,5.373,0,0,0,1.2-1.62c.008-.018.019-.036.028-.055.046-.1.218-.1.229.025a3.233,3.233,0,0,1,.006.349c0,.058-.009.116-.014.174a2.276,2.276,0,0,0,2.305.742,8.645,8.645,0,0,0,2.814-1.12.119.119,0,0,1,.172.161,3.312,3.312,0,0,1-.381.509,3.248,3.248,0,0,0,2.307.231c1.6-.4,2.5-1.486,3.57-2.586l.13-.133a.12.12,0,0,1,.194.105,3.5,3.5,0,0,1-.219.716c-.038.091-.078.181-.124.269a2.106,2.106,0,0,0,.253.1l.853.135a5.11,5.11,0,0,0,.719-.051,4.222,4.222,0,0,0,1.426-.469l0-.007a16.037,16.037,0,0,0-6.314-7.458,4.873,4.873,0,0,1,.436,2.868.055.055,0,0,1-.106,0,6.487,6.487,0,0,0-2-3.536,7.851,7.851,0,0,0-4.059-1.412c-.363-.06-.263-.532,0-.64,2.148-.888,4.292.315,5.417,2.145a3.465,3.465,0,0,1,.94.071c-.28-1.645-3.274-3.625-4.339-4.116-.205-.095-.045-.361.141-.334a8,8,0,0,1,1.307.31,5.4,5.4,0,0,0-1.414-2.8,4.915,4.915,0,0,0-4.086-2.017,4.825,4.825,0,0,1,1.249,3.421.13.13,0,0,1-.253.034,4.906,4.906,0,0,0-3.506-3.813,4.343,4.343,0,0,0-2.745.248,7.626,7.626,0,0,0-1.984,1.669c-.369.336-1.075.015-.893-.521a3.684,3.684,0,0,1,1.924-2.054,6.532,6.532,0,0,0-4.656-3.344,5.988,5.988,0,0,0-3.165.4c-.872.359-1.576,1.007-2.459,1.327a.334.334,0,0,1-.408-.408c.866-2.229,4.37-2.671,6.39-2.205.034.008.067.019.1.027a.282.282,0,0,1,.1-.133,3.206,3.206,0,0,1,1.16-.536,5.139,5.139,0,0,0-.917-1.334,5.472,5.472,0,0,0-4.057-1.628c-2.978-.016-7.391,1.782-7.648,5.188,0,.007,0,.014,0,.021a.469.469,0,0,1-.917.124,4.228,4.228,0,0,1-.17-.949c-.008-.126-.011-.25-.006-.373a10.4,10.4,0,0,0-2.368-1.04,16.888,16.888,0,0,0-5.685-.848,7.434,7.434,0,0,0-7.289,5.328,11.66,11.66,0,0,1,1.508-.092c2.564.016,5.642.912,7.436,2.914a6.849,6.849,0,0,1,2.913-1.44,10.918,10.918,0,0,1,3.943-.12,8.778,8.778,0,0,1,3.954,1.209.521.521,0,0,1-.26.962,15.216,15.216,0,0,1-3.042-.681,11.139,11.139,0,0,0-3.594-.306,7.705,7.705,0,0,0-5.37,2.941c-.059.078-.2.037-.168-.072a5.136,5.136,0,0,1,1.327-2.218,20.173,20.173,0,0,0-2.969-1.467,11.112,11.112,0,0,0-4.171-.692A11.765,11.765,0,0,0,284,188.784a16.792,16.792,0,0,1-1.675,1.232.464.464,0,0,1-.629-.63c.728-1.307,2.568-2.231,3.9-2.778a11.047,11.047,0,0,1,2.116-.629,5.053,5.053,0,0,1-.048-1.154,10.8,10.8,0,0,0-3.135-.2,6.515,6.515,0,0,0-3.067,1.065c-.876.61-2.376,1.677-2.024,2.926v0a.142.142,0,0,1-.259.11,2.119,2.119,0,0,1-.4-1.061,2.526,2.526,0,0,1,.5-1.616,3.246,3.246,0,0,0-.206-.431,6.654,6.654,0,0,0-2.937-2.535c-2.361-1.154-4.958-1.862-7.262-.324-.037.025-.073.045-.11.07a.194.194,0,0,1-.27-.068.188.188,0,0,1-.028-.161,3.052,3.052,0,0,1,.345-.75,3.774,3.774,0,0,0-4.074-.281,4.123,4.123,0,0,0-1.644,2.138,10.1,10.1,0,0,1-.555,1.867c-.016.026-.028.053-.045.077a.062.062,0,0,1-.083.022,1.211,1.211,0,0,1-.476-.521l-.03.009c-.5.153-1.013.291-1.523.476a15.772,15.772,0,0,0-3.5,1.815c-1.839,1.257-4.121,3.357-3.606,5.776a7.743,7.743,0,0,1,.73-.515c2.351-1.455,5.247-1.613,7.946-1.64a5.922,5.922,0,0,1,1.232-1.393c2.183-1.739,5.75-2.591,8.282-1.122a.056.056,0,0,1-.028.1c-2.453-.189-4.765-.268-6.9,1.187a4.6,4.6,0,0,0-1.919,2.619,5.849,5.849,0,0,0,.5,3.208.484.484,0,0,1-.7.542c-1.708-.952-1.631-2.812-.88-4.392a16.409,16.409,0,0,0-6.314,1.6,7.765,7.765,0,0,0-3.69,4.706c-.1.293-.622.371-.675,0a5.187,5.187,0,0,1,1.71-4.262h0a4.078,4.078,0,0,1-.611-1.053c-.239-.032-.463-.05-.589-.069a14.384,14.384,0,0,0-2.038-.18c-1.172-.009-2.3.228-2.7,1.481-.638,1.994.972,3.906,1.136,5.858,0,.038.008.075.011.113a.1.1,0,0,1-.189.051c-.142-.294-.31-.6-.488-.923-.131-.238-.27-.481-.409-.729a4.057,4.057,0,0,0-.631-.7,6.229,6.229,0,0,0-2.633-1.263,4.022,4.022,0,0,0-4.888,3.372c0,.017-.007.032-.009.05-.094.756-1.265.8-1.218,0,.01-.158.027-.314.049-.467-1.067.556-1.878,1.711-3.1,2.172a4.778,4.778,0,0,1-4.109-.214.2.2,0,0,1,.1-.379c.211.019.414.026.612.028a6.133,6.133,0,0,0,3.4-.975,12.775,12.775,0,0,0,1.577-1.175,4.481,4.481,0,0,1,1.993-1.052A5.292,5.292,0,0,1,243,194.7a8.974,8.974,0,0,1,2.344.595,3.478,3.478,0,0,1,.488-2.812,4.047,4.047,0,0,1,3.115-1.526,14.377,14.377,0,0,1,2.828-.03c.625-3.6,6.326-7.126,10.017-7.686.017-.088.035-.173.056-.252a4.9,4.9,0,0,1,8.276-2.225c1.942-.8,4.932.059,6.554.739a8.584,8.584,0,0,1,3.892,3c.032.047.063.1.1.146a8.488,8.488,0,0,1,1.731-1,9.843,9.843,0,0,1,5-.626c.229.029.475.063.728.1,1.287-2.7,4.955-4.3,7.89-4.459.954-.052,6.173.382,8.425,1.782,1.512-2.432,5.434-3.843,7.9-3.984a7.574,7.574,0,0,1,5.645,1.951,6.522,6.522,0,0,1,1.764,2.811c.69.044,1.364.143,1.935.224a17.7,17.7,0,0,1,5.412,1.625c1.365.68,2.819,1.833,2.9,3.495,0,.08,0,.156,0,.234a7.714,7.714,0,0,1,2.908,2.567,4.778,4.778,0,0,1,1.088,3.537,6.277,6.277,0,0,1,2.239,2.221,3.121,3.121,0,0,1,.42,1.725,13.668,13.668,0,0,1,3.332,3.045,16.252,16.252,0,0,1,2.757,4.461,37.319,37.319,0,0,1,27.556,46.436,3.276,3.276,0,0,1,1.162,1.49,2.08,2.08,0,0,1-.06,1.55,2.408,2.408,0,0,1,.653,3.111,2.208,2.208,0,0,1-.876.743,4.393,4.393,0,0,1,.1,2.736,2.069,2.069,0,0,1-.467.75,6.545,6.545,0,0,1,1.04,6.555,5.68,5.68,0,0,1-4.447,2.923c-.287,2.433-2.22,4.944-4.078,6.339a10.389,10.389,0,0,1-7.175,2.1,5.6,5.6,0,0,1-1.974,1.928,6.628,6.628,0,0,1-4.231,1.08l-.021,0c-.374,1.689-2.332,3.345-3.669,3.932a4.514,4.514,0,0,1-5.615-1.463l-.005-.009a10.668,10.668,0,0,1-6.233,1.732,13.794,13.794,0,0,1-7.365-2.253.9.9,0,0,1-.385-.5c-.338.04-.679.05-.977.061a11.569,11.569,0,0,1-3.4-.457.707.707,0,0,1-.164-.068,7.3,7.3,0,0,1-.607.75,5.714,5.714,0,0,1-2.361,1.61,6.393,6.393,0,0,1-5.937-1.341,5.841,5.841,0,0,1-3.454.382c-1.3-.213-3.613-.954-3.991-2.39a.559.559,0,0,1-.016-.192,5.448,5.448,0,0,1-4.223-.317,5.547,5.547,0,0,1-3.027-3.458,7.467,7.467,0,0,1-5.337-2.138c-1.236,1.127-3.647,1.253-5.071.98a7.962,7.962,0,0,1-4.938-3.288,3.714,3.714,0,0,1-1.287-.487,5.084,5.084,0,0,1-1.424-1.379c-1.757,2.461-5.818,3.7-8.516,2.466a7.16,7.16,0,0,1-3.2-3.142,8.348,8.348,0,0,1-1.272-3.816,5.267,5.267,0,0,1-3.769-1.26,12.541,12.541,0,0,1-3.547-5.427,7.182,7.182,0,0,1-6.1-2.46,3.363,3.363,0,0,1-3.385.9,5.253,5.253,0,0,1-3.628-3.558,3.909,3.909,0,0,1-3.194-.322c-.879-.457-2.1-1.347-2.145-2.434-.52,0-1.063-.092-1.557-.126a9.135,9.135,0,0,1-2.393-.33A.055.055,0,0,1,237.722,252.188ZM326.455,184.9a13.8,13.8,0,0,0-3.321-1.454,17.773,17.773,0,0,0-3.576-.713c-.574-.053-1.168-.046-1.752-.094a6.746,6.746,0,0,1,2.983,3.463,5.619,5.619,0,0,1,3.485-.291,5.029,5.029,0,0,1,2.094,1.137.1.1,0,0,1,.013-.011,3.811,3.811,0,0,1,1.42-.5A3.991,3.991,0,0,0,326.455,184.9Zm21.838,88.644h-.009Zm-30.364-5.528a30.449,30.449,0,0,0,5.232,2.469,30.867,30.867,0,0,0,12.917,1.686,30.191,30.191,0,0,0,6.152-1.148,30.545,30.545,0,0,0,5.542-2.261,31.137,31.137,0,0,0,8.6-6.714,30.57,30.57,0,0,0,7.184-14.494,32.333,32.333,0,0,0,.519-4.539c.013-1.053.021-1.615.021-1.615l-.065,1.613a34.5,34.5,0,0,1-.629,4.51,30.371,30.371,0,0,1-2.279,6.67,29.261,29.261,0,0,1-2.14,3.767,32.084,32.084,0,0,1-2.949,3.781,30.593,30.593,0,0,1-8.533,6.494,30.335,30.335,0,0,1-17.79,3.043,30.641,30.641,0,0,1-6.284-1.531,29.657,29.657,0,0,1-5.69-2.783A10.018,10.018,0,0,1,317.929,268.017Zm-9.018-8.3a4.015,4.015,0,0,1,.968.143q-.643-.829-1.231-1.7A7.947,7.947,0,0,1,308.911,259.717Zm-4.322-7.834c.14.392.291.78.448,1.167a7.5,7.5,0,0,1,1.314,1.051c-.38-.814-.725-1.642-1.028-2.484q-.427-1.193-.752-2.413a6.484,6.484,0,0,1-.094,2.356C304.515,251.667,304.551,251.776,304.589,251.883Zm27.424-40.98a32.214,32.214,0,0,0-4.532.52,30.495,30.495,0,0,0-14.469,7.2,31.136,31.136,0,0,0-6.7,8.613,30.5,30.5,0,0,0-2.258,5.551,30.183,30.183,0,0,0-1.145,6.158,31.308,31.308,0,0,0,.3,7.562,3.847,3.847,0,0,1,1.1,1.634c-.215-.934-.388-1.874-.513-2.815q-.052-.4-.1-.795c-.025-.265-.043-.529-.065-.792l-.062-.79q-.012-.4-.023-.8l-.011-.4-.006-.2,0-.1v-.09c.006-.264.012-.526.018-.789s.008-.524.021-.785.037-.521.056-.781a30.292,30.292,0,0,1,9.7-20.04A31.949,31.949,0,0,1,317.092,216a29.317,29.317,0,0,1,3.76-2.144,30.326,30.326,0,0,1,6.66-2.282,34.321,34.321,0,0,1,4.5-.63l1.611-.065Zm2.851,1.729-.227-.011-.114-.006-.057,0c-.016,0-.056,0-.066,0l-.447,0-.89,0c-.3.012-.6.031-.9.047s-.6.029-.895.065l-.883.09-.219.023-.219.033-.435.066c-.29.047-.58.083-.865.139l-.853.175c-.141.03-.283.057-.424.089l-.418.107-.832.215c-.273.078-.543.167-.815.25s-.543.161-.8.263A29.066,29.066,0,0,0,318.635,217a28.736,28.736,0,0,0-8.252,7.92,27.811,27.811,0,0,0-2.4,4.195,26.533,26.533,0,0,0-1.457,3.854,27.763,27.763,0,0,0-1.08,5.689c-.016.167-.031.324-.044.471s-.016.286-.023.413c-.011.256-.021.471-.028.644-.014.346-.023.525-.023.525v.038s0,.17,0,.5c0,.164,0,.369,0,.612,0,.124,0,.247.007.4s.018.314.028.485.02.354.031.546.019.4.045.6c.046.41.09.86.151,1.344.039.241.078.492.12.75.021.13.042.261.064.4s.043.27.075.406q.087.412.181.847c.032.147.061.294.1.443s.079.3.12.45l.251.937q.152.474.311.971c.1.334.23.667.358,1.007s.256.691.415,1.036a26.4,26.4,0,0,0,2.32,4.334,28.16,28.16,0,0,0,3.519,4.336,28.739,28.739,0,0,0,10.783,6.871c.269.107.549.183.826.275s.555.18.838.262l.854.226.43.113c.144.034.29.063.436.094l.878.186c.293.06.593.1.891.149l.448.07.224.036.227.025.91.1c.3.039.609.05.917.069s.615.037.923.05l.931.006.467,0h.089l.056,0,.111-.005.224-.011.9-.043.114-.006.12-.011.24-.023.481-.047c.65-.05,1.27-.159,1.9-.253a28.424,28.424,0,0,0,3.757-.9c.626-.178,1.232-.422,1.849-.642.3-.121.606-.253.91-.379l.454-.192.446-.214a28.538,28.538,0,0,0,6.674-4.386l.75-.681c.247-.231.481-.476.723-.713.119-.12.241-.238.358-.361l.343-.376.344-.378c.114-.124.229-.25.335-.383l.651-.786c.215-.265.412-.543.619-.815l.305-.41.288-.423.288-.425c.1-.141.193-.282.279-.43a29.923,29.923,0,0,0,1.943-3.624l.408-.947c.131-.318.243-.644.366-.965.059-.161.123-.321.178-.484l.157-.492.157-.492c.053-.164.1-.328.146-.5l.264-1c.085-.334.147-.674.221-1.01l.106-.506.082-.51c.051-.341.117-.68.155-1.022l.112-1.027c.021-.171.033-.344.041-.515l.033-.516.031-.515c.013-.171.007-.344.012-.516l.012-1.041a32.056,32.056,0,0,0-.353-4.1c-.048-.34-.123-.676-.183-1.013l-.1-.505-.12-.5c-.03-.12-.058-.24-.087-.361q.084.405.163.788c.1.529.165,1.029.239,1.492.056.465.1.9.138,1.291.023.193.029.4.04.581s.02.363.029.531.016.324.024.472c0,.076,0,.137,0,.2v.748c0,.307,0,.466,0,.466v.054s-.007.171-.023.5c-.008.166-.017.373-.029.617-.008.122-.008.254-.023.395s-.028.292-.044.452a26,26,0,0,1-1.058,5.447,25.644,25.644,0,0,1-1.417,3.685,26.538,26.538,0,0,1-2.319,4,27.427,27.427,0,0,1-7.925,7.524,27.662,27.662,0,0,1-5.612,2.66c-.25.1-.511.166-.767.248s-.516.161-.778.234l-.793.2-.4.1c-.134.03-.269.055-.4.083l-.812.162c-.272.053-.55.086-.825.129l-.415.061-.207.031-.21.02-.841.083c-.279.032-.569.043-.857.058s-.58.031-.866.041h-1.247s-.062,0-.075,0l-.054,0-.109-.006-.216-.01-.867-.043c-.29-.016-.579-.053-.87-.078-.582-.044-1.161-.144-1.744-.228a27.258,27.258,0,0,1-3.473-.816c-.579-.16-1.141-.383-1.714-.578-.283-.108-.562-.227-.844-.341l-.423-.172-.415-.193c-.275-.13-.555-.254-.829-.391l-.815-.428c-.276-.136-.536-.3-.8-.454s-.537-.306-.793-.479l-.78-.507c-.254-.179-.5-.363-.758-.544-.126-.093-.256-.18-.377-.277l-.368-.29-.369-.29c-.124-.1-.246-.194-.362-.3a28.135,28.135,0,0,1-2.715-2.631l-.625-.719c-.207-.241-.4-.5-.6-.745l-.3-.376-.279-.389-.278-.39c-.094-.129-.188-.259-.272-.395l-.523-.808c-.171-.272-.324-.555-.489-.83-.08-.139-.164-.277-.242-.418l-.223-.429-.224-.428c-.075-.142-.15-.286-.214-.433a27.385,27.385,0,0,1-1.425-3.614l-.278-.935c-.089-.312-.158-.632-.238-.947l-.115-.476-.092-.48c-.058-.321-.13-.64-.177-.962l-.136-.971c-.025-.16-.041-.326-.055-.491l-.046-.5-.045-.5c-.018-.167-.017-.319-.026-.479l-.041-.95.008-1c0-.164,0-.328.009-.492l.028-.491.029-.492c.008-.163.018-.327.038-.489l.1-.979c.036-.326.1-.649.145-.973l.077-.487.1-.482c.069-.321.127-.644.207-.962l.248-.954c.038-.16.087-.316.136-.472l.146-.47.147-.47c.052-.156.112-.309.166-.464.115-.307.222-.618.344-.922l.383-.906a28.141,28.141,0,0,1,1.834-3.468,27.454,27.454,0,0,1,11.376-10.17l.426-.207.435-.187c.29-.122.578-.25.869-.367.59-.214,1.17-.449,1.769-.624a27.323,27.323,0,0,1,3.6-.884c.608-.092,1.2-.2,1.832-.251l.468-.048.234-.023.116-.011.105-.006.839-.045.209-.011.1,0,.053,0h.553l.893,0c.3.011.592.029.887.044s.589.026.88.063l.873.09.218.023.216.033.43.067c.286.047.573.083.856.14l.844.174c.14.029.28.057.42.089l.413.107.822.214c.271.078.538.166.806.248s.536.161.8.262a28.29,28.29,0,0,1,3.527,1.539c-.068-.036-.133-.076-.2-.109l-.857-.45c-.288-.144-.582-.274-.873-.411l-.436-.2-.445-.181c-.3-.118-.591-.243-.888-.356-.6-.2-1.194-.437-1.8-.6a28.526,28.526,0,0,0-3.655-.848c-.613-.087-1.222-.191-1.834-.234-.306-.026-.609-.063-.915-.08ZM357.179,247.6a54.753,54.753,0,0,0-2.087-5.592l-14.94-.769a5.7,5.7,0,0,1-.472,1.809l15.545,7.508a12.665,12.665,0,0,1-.972,2.776,18.362,18.362,0,0,1-4.5,5.3c-.011.008,0,.026.014.018a20.063,20.063,0,0,0,5.34-4.819,12.178,12.178,0,0,0,1.516-3.1,7.428,7.428,0,0,0,.542-3.067Zm-46.727-13.113c.015-.127-.185-.145-.217-.029A24.409,24.409,0,0,0,310,246.813c.031.142.062.284.1.424l.239.888c.037.149.084.3.132.44l.143.437.144.437c.05.145.109.287.163.43.112.285.214.574.333.855l.369.839a25.87,25.87,0,0,0,1.46,2.7l16.408-10.7a5.706,5.706,0,0,1-.613-1.562l-17.543,3.18A26.952,26.952,0,0,1,310.452,234.487Zm11.2,26.421a14.091,14.091,0,0,0,7.1,4.306,16.158,16.158,0,0,0,3.885.548c.168.01.335.019.5.021h.619a13.294,13.294,0,0,0,1.5-.049l.317-.016c.265-.024.52-.053.778-.079s.513-.046.773-.1l.773-.124.193-.031.19-.04.38-.08c.251-.057.5-.1.751-.166l.738-.2.312-.083L335.5,246.349a5.7,5.7,0,0,1-1.046.1,5.87,5.87,0,0,1-.722-.047l-2.408,17.743c-.737-.059-1.47-.156-2.2-.278a18.968,18.968,0,0,1-7.4-3.044C321.663,260.784,321.614,260.863,321.651,260.908Zm8.359-23.815a5.788,5.788,0,0,1,1.268-1.155l-8.738-16.285a24.782,24.782,0,0,0-3.878,2.49l-.675.548c-.222.186-.434.386-.653.578-.107.1-.217.193-.325.294l-.31.308-.313.309c-.1.1-.21.2-.306.315l-.6.649c-.033.037-.065.075-.1.112Zm1.18.255c-.019.018-.036.03-.06.053l-.05.054-.1.107c-.067.074-.138.139-.2.218a4.911,4.911,0,0,0-1.006,2,4.859,4.859,0,0,0-.052,1.921,4.643,4.643,0,0,0,.491,1.418l.146.26c.048.08.1.149.148.218l.13.185c.04.057.085.1.121.146l.226.262.011.01.236.224c.04.036.077.077.133.122l.186.144c.067.051.138.11.219.164l.255.159a4.484,4.484,0,0,0,1.42.556,4.807,4.807,0,0,0,1.971-.014,4.918,4.918,0,0,0,2.075-1.016c.082-.063.153-.139.229-.21l.114-.107.057-.054.016-.017.006-.007.012-.014.025-.028a4.83,4.83,0,0,0,.387-.487,4.7,4.7,0,0,0,.6-1.165,5.015,5.015,0,0,0,.266-1.315,4.8,4.8,0,0,0-.607-2.639,5.329,5.329,0,0,0-.84-1.089,5.139,5.139,0,0,0-1.109-.8,5.006,5.006,0,0,0-1.275-.45,5.308,5.308,0,0,0-1.327-.071,5.078,5.078,0,0,0-1.266.287,5.069,5.069,0,0,0-1.588.98Zm6.867-1.09,8.015-8.388a31,31,0,0,0-5.087-4.351l-4.517,11.825A5.73,5.73,0,0,1,338.057,236.257Zm30.609,2.249c-.016-.374-.034-.788-.054-1.239-.043-.449-.091-.934-.141-1.453-.02-.261-.066-.526-.106-.8s-.084-.556-.127-.846c-.023-.144-.039-.292-.071-.439l-.092-.447-.192-.925c-.016-.079-.033-.158-.05-.238s-.04-.158-.061-.237c-.042-.159-.083-.319-.126-.482q-.127-.487-.259-.99-.159-.5-.321-1.009c-.055-.171-.11-.344-.166-.516s-.126-.343-.189-.516q-.2-.519-.4-1.051c-.14-.352-.3-.7-.452-1.058l-.233-.538c-.079-.179-.173-.353-.26-.531q-.265-.532-.537-1.073c-.4-.7-.779-1.43-1.236-2.125l-.332-.53-.167-.265-.18-.258-.729-1.036a33.714,33.714,0,0,0-7.239-7.252l-1.033-.731-.258-.179-.265-.169-.53-.332c-.693-.457-1.422-.837-2.121-1.238l-1.072-.538c-.177-.087-.352-.181-.53-.261l-.537-.233c-.357-.152-.705-.312-1.057-.452l-1.05-.4c-.173-.063-.343-.133-.516-.19l-.516-.166-1.007-.322-.988-.26-.481-.125-.237-.061-.237-.05-.923-.192-.445-.093c-.147-.032-.295-.048-.439-.071l-.844-.127c-.274-.04-.538-.085-.8-.106l-1.451-.141-1.235-.053-.3-.013c-.06.048-.122.1-.184.144l.472.052,1.221.136,1.427.225c.255.033.515.094.783.149l.826.172c.141.031.285.055.429.092l.435.111.9.229.231.059.23.07.467.144.959.3.978.351.5.179c.168.06.332.135.5.2l1.016.42c.34.148.676.316,1.02.475l.518.244c.173.083.341.177.513.265l1.037.545a40.384,40.384,0,0,1,4.064,2.651,35.716,35.716,0,0,1,7.056,7.068,40.225,40.225,0,0,1,2.648,4.07l.544,1.038c.089.172.182.341.266.514s.163.346.243.518c.16.344.327.681.475,1.022s.281.682.419,1.017c.067.167.141.332.2.5s.119.335.178.5q.178.5.352.979l.3.961.145.468.07.23.058.232q.118.46.229.9.055.221.111.436c.037.144.062.288.092.43q.088.424.172.827c.054.268.114.528.148.785q.119.765.225,1.429c.05.445.094.853.136,1.221.02.185.039.359.057.524s.022.321.032.465c.018.289.035.534.048.733.026.4.04.611.04.611s0-.213.009-.612c0-.2.007-.446.011-.735,0-.145.007-.3.006-.467S368.674,238.693,368.666,238.506Zm-50.9,45.159c1.954.139,4.1-1.383,3.53-3.461a6.012,6.012,0,0,1-5.758,1.162,7.024,7.024,0,0,1-1.136,1.092A8.376,8.376,0,0,0,317.769,283.665Z" transform="translate(-230.041 -176.449)" fill="#283347"/>
  </g>
</svg>
