<svg xmlns="http://www.w3.org/2000/svg" xmlns:xlink="http://www.w3.org/1999/xlink" width="180" height="886.5" viewBox="0 0 180 886.5">
  <defs>
    <linearGradient id="linear-gradient" x1="1" y1="0.5" x2="0.604" y2="0.5" gradientUnits="objectBoundingBox">
      <stop offset="0" stop-color="#283347"/>
      <stop offset="1" stop-color="#fff" stop-opacity="0"/>
    </linearGradient>
    <linearGradient id="linear-gradient-3" x1="0.98" y1="-0.484" x2="-0.018" y2="-0.484" gradientUnits="objectBoundingBox">
      <stop offset="0" stop-color="#283347" stop-opacity="0"/>
      <stop offset="0.51" stop-color="#fff" stop-opacity="0"/>
      <stop offset="1" stop-color="#283347"/>
    </linearGradient>
  </defs>
  <g id="Group_342362" data-name="Group 342362" transform="translate(-1319 -193)">
    <path id="Line_15" data-name="Line 15" d="M0,60H886V0H0Z" transform="translate(1379 193) rotate(90)" opacity="0.6" fill="url(#linear-gradient)"/>
    <path id="Line_15-2" data-name="Line 15" d="M0,60H886V0H0Z" transform="translate(1499 193) rotate(90)" opacity="0.6" fill="url(#linear-gradient)"/>
    <path id="Union_1" data-name="Union 1" d="M624.1,59.439V44.579h14.859v14.86Zm-29.719,0V44.579h14.86v14.86Zm-29.719,0V44.58H549.8V29.72h-14.86V14.86H549.8V29.72h14.859V44.579h14.86v14.86Zm-29.719,0V44.579H549.8v14.86Zm-29.718,0V44.579h14.859v14.86Zm-29.719,0V44.579h14.859v14.86Zm-29.72,0V44.579h14.86v14.86Zm-29.718,0V44.579h14.859v14.86Zm-29.719,0V44.579H401.2v14.86Zm-29.72,0V44.579h14.86v14.86Zm-29.718,0V44.579h14.859v14.86Zm-29.719,0V44.579h14.859v14.86Zm-29.719,0V44.579h14.859v14.86Zm-29.719,0V44.579h14.859v14.86Zm-29.719,0V44.579H222.89v14.86Zm-29.719,0V44.579h14.86v14.86Zm-29.718,0V44.579h14.859v14.86Zm-29.719,0V44.579h14.859v14.86Zm-29.719,0V44.579h14.859v14.86Zm-29.719,0V44.579H74.3v14.86Zm-29.719,0V44.579H44.578v14.86ZM0,59.439V44.579H14.86v14.86ZM638.955,44.58V29.72h14.859V44.58Zm-29.719,0V29.72h-14.86V14.86h14.86V29.72H624.1V44.58Zm-29.719,0V29.72h-14.86V14.86H549.8V0h14.859V14.86h14.86V29.72h14.859V44.58Zm-59.438,0V29.72H505.22V14.86h14.859V29.72h14.859V44.58Zm-29.719,0V29.72H475.5V14.86h14.859V29.72H505.22V44.58Zm-29.719,0V29.72h-14.86V14.86h14.86V29.72H475.5V44.58Zm-29.719,0V29.72H416.064V14.86h14.859V29.72h14.859V44.58Zm-29.719,0V29.72H386.345V14.86H401.2V29.72h14.859V44.58Zm-29.719,0V29.72h-14.86V14.86h14.86V29.72h14.859V44.58Zm-29.719,0V29.72H326.907V14.86h14.859V29.72h14.859V44.58Zm-29.719,0V29.72H297.188V14.86h14.859V29.72h14.859V44.58Zm-29.719,0V29.72H267.469V14.86h14.859V29.72h14.86V44.58Zm-29.719,0V29.72H237.75V14.86h14.859V29.72h14.86V44.58Zm-29.719,0V29.72H208.031V14.86H222.89V29.72h14.86V44.58Zm-29.718,0V29.72h-14.86V14.86h14.86V29.72h14.859V44.58Zm-29.719,0V29.72H148.594V14.86h14.859V29.72h14.859V44.58Zm-29.719,0V29.72H118.876V14.86h14.859V29.72h14.859V44.58Zm-29.719,0V29.72H89.157V14.86h14.859V29.72h14.86V44.58Zm-29.719,0V29.72H59.438V14.86H74.3V29.72h14.86V44.58Zm-29.719,0V29.72H29.719V14.86H44.578V29.72h14.86V44.58Zm-29.718,0V29.72H0V14.86H14.86V29.72H29.719V44.58ZM624.1,29.72V14.86h14.859V29.72Zm14.86-14.86V0h14.859V14.86Zm-29.719,0V0H624.1V14.86Zm-29.719,0V0h14.859V14.86Zm-59.438,0V0h14.859V14.86Zm-29.719,0V0H505.22V14.86Zm-29.719,0V0H475.5V14.86Zm-29.719,0V0h14.859V14.86Zm-29.719,0V0h14.859V14.86Zm-29.719,0V0h14.859V14.86Zm-29.719,0V0h14.859V14.86Zm-29.719,0V0h14.859V14.86Zm-29.719,0V0h14.86V14.86Zm-29.719,0V0h14.86V14.86Zm-29.719,0V0h14.86V14.86Zm-29.718,0V0h14.859V14.86Zm-29.719,0V0h14.859V14.86Zm-29.719,0V0h14.859V14.86Zm-29.719,0V0h14.86V14.86Zm-29.719,0V0h14.86V14.86Zm-29.719,0V0h14.86V14.86Zm-29.718,0V0H29.719V14.86Z" transform="translate(1379 1079) rotate(-90)" stroke="rgba(0,0,0,0)" stroke-width="1" opacity="0.14" fill="url(#linear-gradient-3)"/>
  </g>
</svg>
