<svg xmlns="http://www.w3.org/2000/svg" width="24" height="24" viewBox="0 0 24 24">
  <g id="Group_346238" data-name="Group 346238" transform="translate(3433 2236)">
    <g id="Group_5" data-name="Group 5" transform="translate(-3433 -2236)">
      <path id="Path_3" data-name="Path 3" d="M20,7H4A.945.945,0,0,1,3,6,.945.945,0,0,1,4,5H20a.945.945,0,0,1,1,1A.945.945,0,0,1,20,7Z" fill="#283347"/>
      <path id="Path_4" data-name="Path 4" d="M14,13H4a1,1,0,0,1,0-2H14a1,1,0,0,1,0,2Z" transform="translate(3)" fill="#283347"/>
      <path id="Path_5" data-name="Path 5" d="M18,19H4a1,1,0,0,1,0-2H18a1,1,0,0,1,0,2Z" transform="translate(1)" fill="#283347"/>
    </g>
    <path id="Vector" d="M0,0H24V24H0Z" transform="translate(-3409 -2212) rotate(180)" fill="none" opacity="0"/>
  </g>
</svg>
