<svg id="Component_17_1" data-name="Component 17 – 1" xmlns="http://www.w3.org/2000/svg" width="80" height="80" viewBox="0 0 80 80">
  <circle id="Ellipse_182" data-name="Ellipse 182" cx="40" cy="40" r="40" fill="#283347"/>
  <g id="playstore" transform="translate(8.009 27)">
    <g id="Group_338870" data-name="Group 338870" transform="translate(23.898 0)">
      <g id="Group_338869" data-name="Group 338869" transform="translate(0 0)">
        <path id="Path_338933" data-name="Path 338933" d="M62.709.409A2.4,2.4,0,0,0,60.8.068L72.151,11.8l3.678-3.8Z" transform="translate(-60.802 0)" fill="#fff"/>
      </g>
    </g>
    <g id="Group_338872" data-name="Group 338872" transform="translate(21.991 1.021)">
      <g id="Group_338871" data-name="Group 338871" transform="translate(0)">
        <path id="Path_338934" data-name="Path 338934" d="M22.49,20.116a2.6,2.6,0,0,0-.5,1.534V42.539a2.6,2.6,0,0,0,.5,1.534L34.081,32.094Z" transform="translate(-21.991 -20.116)" fill="#fff"/>
      </g>
    </g>
    <g id="Group_338874" data-name="Group 338874" transform="translate(36.413 8.858)">
      <g id="Group_338873" data-name="Group 338873" transform="translate(0)">
        <path id="Path_338935" data-name="Path 338935" d="M322.764,176.361l-3.306-1.911-4.007,4.141,4.008,4.141,3.306-1.911a2.6,2.6,0,0,0,0-4.459Z" transform="translate(-315.451 -174.45)" fill="#fff"/>
      </g>
    </g>
    <g id="Group_338876" data-name="Group 338876" transform="translate(23.899 14.204)">
      <g id="Group_338875" data-name="Group 338875" transform="translate(0)">
        <path id="Path_338936" data-name="Path 338936" d="M72.163,279.711,60.815,291.437a2.381,2.381,0,0,0,1.907-.34l13.12-7.585Z" transform="translate(-60.815 -279.711)" fill="#fff"/>
      </g>
    </g>
  </g>
</svg>
