<svg id="twitter_5_" data-name="twitter (5)" xmlns="http://www.w3.org/2000/svg" width="24" height="20" viewBox="0 0 24 20">
  <path id="twitter_5_2" data-name="twitter (5)" d="M24,50.368a10.059,10.059,0,0,1-2.835.8,5,5,0,0,0,2.164-2.789,9.685,9.685,0,0,1-3.12,1.222A4.874,4.874,0,0,0,16.615,48,4.983,4.983,0,0,0,11.7,53.048a5.324,5.324,0,0,0,.114,1.151A13.815,13.815,0,0,1,1.671,48.92,5.18,5.18,0,0,0,1,51.471a5.089,5.089,0,0,0,2.185,4.194A4.766,4.766,0,0,1,.96,55.043V55.1A5.04,5.04,0,0,0,4.9,60.057a4.8,4.8,0,0,1-1.29.166,4.245,4.245,0,0,1-.931-.086,4.985,4.985,0,0,0,4.6,3.515,9.73,9.73,0,0,1-6.1,2.152A8.989,8.989,0,0,1,0,65.735,13.6,13.6,0,0,0,7.548,68c9.054,0,14-7.692,14-14.36,0-.223-.008-.438-.018-.652A9.958,9.958,0,0,0,24,50.368Z" transform="translate(0 -48)" fill="#283347"/>
</svg>
