<svg xmlns="http://www.w3.org/2000/svg" width="179" height="90" viewBox="0 0 179 90">
  <g id="Group_346208" data-name="Group 346208" transform="translate(-182 -406)">
    <path id="Path_205073" data-name="Path 205073" d="M15.238,42.5A15.232,15.232,0,0,1,0,27.262a.762.762,0,0,1,1.524,0A13.73,13.73,0,0,0,15.238,40.976a.762.762,0,0,1,0,1.524Z" transform="translate(182 453.5)" fill="#283347"/>
    <path id="Path_205073-2" data-name="Path 205073" d="M15.238,26.5A15.232,15.232,0,0,0,0,41.738a.762.762,0,0,0,1.524,0A13.73,13.73,0,0,1,15.238,28.024a.762.762,0,0,0,0-1.524Z" transform="translate(182 379.5)" fill="#283347"/>
    <path id="Path_205073-3" data-name="Path 205073" d="M.762,42.5a15.14,15.14,0,0,0,10.777-4.461A15.14,15.14,0,0,0,16,27.262a.762.762,0,0,0-1.524,0A13.73,13.73,0,0,1,.762,40.976a.762.762,0,0,0,0,1.524Z" transform="translate(345 453.5)" fill="#283347"/>
    <path id="Path_205073-4" data-name="Path 205073" d="M.762,26.5a15.14,15.14,0,0,1,10.777,4.461A15.14,15.14,0,0,1,16,41.738a.762.762,0,0,1-1.524,0A13.73,13.73,0,0,0,.762,28.024a.762.762,0,0,1,0-1.524Z" transform="translate(345 379.5)" fill="#283347"/>
  </g>
</svg>
