<svg xmlns="http://www.w3.org/2000/svg" width="18" height="18" viewBox="0 0 18 18">
  <g id="Group_346088" data-name="Group 346088" transform="translate(3390 12985)">
    <g id="verify" transform="translate(-3390.005 -12985.008)">
      <path id="Path_203330" data-name="Path 203330" d="M8.38,10.991,9.786,12.4,12.6,9.58" transform="translate(-1.493 -1.992)" fill="none" stroke="#20ad6d" stroke-linecap="round" stroke-linejoin="round" stroke-width="1.5"/>
      <path id="Path_203331" data-name="Path 203331" d="M8.124,2.317a1.41,1.41,0,0,1,1.763,0l1.106.952a1.551,1.551,0,0,0,.882.329h1.19a1.356,1.356,0,0,1,1.35,1.35v1.19a1.57,1.57,0,0,0,.329.882L15.7,8.125a1.41,1.41,0,0,1,0,1.763l-.952,1.106a1.551,1.551,0,0,0-.329.882v1.19a1.356,1.356,0,0,1-1.35,1.35h-1.19a1.57,1.57,0,0,0-.882.329L9.888,15.7a1.41,1.41,0,0,1-1.763,0l-1.106-.952a1.551,1.551,0,0,0-.882-.329H4.926a1.356,1.356,0,0,1-1.35-1.35v-1.2a1.592,1.592,0,0,0-.322-.875L2.309,9.881a1.409,1.409,0,0,1,0-1.749l.945-1.113a1.592,1.592,0,0,0,.322-.875v-1.2a1.356,1.356,0,0,1,1.35-1.35H6.137a1.57,1.57,0,0,0,.882-.329Z" fill="none" stroke="#20ad6d" stroke-linecap="round" stroke-linejoin="round" stroke-width="1.5"/>
    </g>
    <rect id="Rectangle_24759" data-name="Rectangle 24759" width="18" height="18" transform="translate(-3390 -12985)" fill="none"/>
  </g>
</svg>
