<svg xmlns="http://www.w3.org/2000/svg" width="24" height="24" viewBox="0 0 24 24">
  <g id="video-play" transform="translate(-236 -384)">
    <g id="video-play-2" data-name="video-play" transform="translate(236 384)">
      <path id="Vector" d="M20,13V7c0-5-2-7-7-7H7C2,0,0,2,0,7v6c0,5,2,7,7,7h6C18,20,20,18,20,13Z" transform="translate(2 2)" fill="none" stroke="#283347" stroke-linecap="round" stroke-linejoin="round" stroke-width="1.5"/>
      <path id="Vector-2" data-name="Vector" d="M0,0H18.96" transform="translate(2.52 7.11)" fill="none" stroke="#283347" stroke-linecap="round" stroke-linejoin="round" stroke-width="1.5"/>
      <path id="Vector-3" data-name="Vector" d="M0,0V4.86" transform="translate(8.52 2.11)" fill="none" stroke="#283347" stroke-linecap="round" stroke-linejoin="round" stroke-width="1.5"/>
      <path id="Vector-4" data-name="Vector" d="M0,0V4.41" transform="translate(15.48 2.11)" fill="none" stroke="#283347" stroke-linecap="round" stroke-linejoin="round" stroke-width="1.5"/>
      <path id="Vector-5" data-name="Vector" d="M0,2.929v-1.2C0,.189,1.09-.441,2.42.329l1.04.6,1.04.6c1.33.77,1.33,2.03,0,2.8l-1.04.6-1.04.6C1.09,6.3,0,5.669,0,4.129v-1.2Z" transform="translate(9.75 11.521)" fill="none" stroke="#283347" stroke-linecap="round" stroke-linejoin="round" stroke-width="1.5"/>
      <path id="Vector-6" data-name="Vector" d="M0,0H24V24H0Z" fill="none" opacity="0"/>
    </g>
  </g>
</svg>
