<svg xmlns="http://www.w3.org/2000/svg" width="156" height="60" viewBox="0 0 156 60">
  <path id="Path_462664" data-name="Path 462664" d="M-13.361-28.507A2.62,2.62,0,0,1-11.594-29a3.756,3.756,0,0,1,2.012.832,1.88,1.88,0,0,1,.736,1.91A2.6,2.6,0,0,1-9.926-24.2l-.491.392A32.321,32.321,0,0,1-16.6-19.987a62.631,62.631,0,0,1-7.8,3.134q-4.171,1.371-8.636,2.4T-41.77-12.74q-4.269.686-8.194.979t-6.967.294a27.05,27.05,0,0,1-11.481-2.3,14.665,14.665,0,0,1-6.624-5.974,15.873,15.873,0,0,1-1.914-8.569,27.762,27.762,0,0,1,2.5-10.038,44.524,44.524,0,0,1,6.673-10.479A55.677,55.677,0,0,1-57.03-58.572a62.608,62.608,0,0,1,19.332-9.5A91.9,91.9,0,0,1-16.6-71.4q1.865-.1,3.778-.049a18.432,18.432,0,0,1,3.778.49,15.267,15.267,0,0,1,3.484,1.273,10.206,10.206,0,0,1,2.993,2.4A7.522,7.522,0,0,1-.653-61.412a12.857,12.857,0,0,1-2.012,5.778,32.336,32.336,0,0,1-7.213,7.1,80.272,80.272,0,0,1-10.451,6.61,96.835,96.835,0,0,1-11.727,5.288A60.81,60.81,0,0,1-43-33.55a18.527,18.527,0,0,1-8-.049,3.894,3.894,0,0,1-3.091-4.113,9.182,9.182,0,0,1,.981-4.26,6.973,6.973,0,0,1,2.159-2.693,18.575,18.575,0,0,0,9.077,1.42,51.361,51.361,0,0,0,10.745-1.91,62.929,62.929,0,0,0,10.647-4.113,53.07,53.07,0,0,0,8.734-5.288,18.445,18.445,0,0,0,5-5.288q1.423-2.546-.442-4.211a6.265,6.265,0,0,0-3.042-1.371,27.384,27.384,0,0,0-4.122-.49,30.954,30.954,0,0,0-4.269.1q-2.11.2-3.386.294a64.379,64.379,0,0,0-12.119,2.791,66.161,66.161,0,0,0-11.531,5.092,58.941,58.941,0,0,0-10.206,7.247A50.032,50.032,0,0,0-64-41.238a37.664,37.664,0,0,0-2.551,4.407,26.035,26.035,0,0,0-1.963,5.239,15.188,15.188,0,0,0-.442,5.239,6.822,6.822,0,0,0,2.208,4.407,11.868,11.868,0,0,0,6.231,2.693,42.353,42.353,0,0,0,9.323.49,88.97,88.97,0,0,0,10.844-1.224q5.692-.979,10.893-2.35a97.253,97.253,0,0,0,9.372-2.938,35.783,35.783,0,0,0,6.33-2.938Zm32.285.686.393-.392A2.55,2.55,0,0,1,21.182-29a2.55,2.55,0,0,1,1.865.783,2.668,2.668,0,0,1,.932,1.959,2.649,2.649,0,0,1-.834,2.057l-.294.294A52.534,52.534,0,0,1,17.943-19.6a35.538,35.538,0,0,1-3.631,2.155,14.768,14.768,0,0,1-4.22,1.469,8.958,8.958,0,0,1-4.072-.147,5.532,5.532,0,0,1-3.189-2.6.2.2,0,0,0-.049-.147.2.2,0,0,1-.049-.147,14.382,14.382,0,0,1-8.1,3.624,9.408,9.408,0,0,1-6.624-1.665,7.829,7.829,0,0,1-2.944-5.68q-.393-3.721,2.944-8.422a18.99,18.99,0,0,1,4.759-4.8,19.146,19.146,0,0,1,5.2-2.546,14.661,14.661,0,0,1,4.858-.686,11.082,11.082,0,0,1,3.778.734A3.811,3.811,0,0,1,8.67-36.733a2.127,2.127,0,0,1-.442,2.35q-.981,1.371-1.963,1.273t-2.257-.343a9.45,9.45,0,0,0-3.042,0,9.654,9.654,0,0,0-4.318,2.3,19.79,19.79,0,0,0-2.061,2.2,18.451,18.451,0,0,0-1.865,2.742,8.3,8.3,0,0,0-.981,2.6q-.2,1.175.589,1.567a3.607,3.607,0,0,0,2.993.294,13.511,13.511,0,0,0,3.386-1.518A19.766,19.766,0,0,0,1.8-25.618q1.423-1.322,2.306-2.3a2.958,2.958,0,0,1,2.159-1.273,2.469,2.469,0,0,1,1.815.734,3.163,3.163,0,0,1,.883,1.91,2.777,2.777,0,0,1-.638,2.155Q6.952-22.239,7.492-21.7a1.969,1.969,0,0,0,1.865.245,11.678,11.678,0,0,0,2.895-1.126A18.943,18.943,0,0,0,14.607-24ZM52-28.213a2.668,2.668,0,0,1,.932,1.959,2.649,2.649,0,0,1-.834,2.057l-.2.294a53.671,53.671,0,0,1-4.318,3.868A21.59,21.59,0,0,1,42.771-17.1a15.894,15.894,0,0,1-5.348,1.322,12.934,12.934,0,0,1-5.741-.979,4.917,4.917,0,0,1-2.5-1.861,5.137,5.137,0,0,1-.785-2.6,7.229,7.229,0,0,1,.491-2.84,15.841,15.841,0,0,1,1.325-2.693,34.922,34.922,0,0,1,2.748-3.624q1.374-1.567,2.65-3.232l.1-.1-4.514-.588a15.687,15.687,0,0,1-1.472,2.2q-1.079,1.42-2.257,2.889T25.156-26.45q-1.129,1.273-1.619,1.861l-.294.294a2.519,2.519,0,0,1-1.963.881,2.666,2.666,0,0,1-1.963-.783,3.1,3.1,0,0,1-.834-1.959,2.376,2.376,0,0,1,.736-1.861l.294-.294,6.379-7.737a6.225,6.225,0,0,1-2.4-4.309,4.911,4.911,0,0,1,1.178-3.526A4.945,4.945,0,0,1,27.855-45.5a3.713,3.713,0,0,1,3.435,1.518,4.179,4.179,0,0,1,.932,1.861q.245,1.077.343,1.861a16,16,0,0,1,6.28.881,6.762,6.762,0,0,1,3.435,2.6,4.868,4.868,0,0,1,.442,3.819,10.711,10.711,0,0,1-2.7,4.554l-5.4,6.072a2.865,2.865,0,0,0-.245.294q-.147.2.245.392a5.315,5.315,0,0,0,2.159.392,9.6,9.6,0,0,0,2.6-.441,12.345,12.345,0,0,0,3.484-1.812,21.66,21.66,0,0,0,2.6-1.959q1.227-1.077,2.5-2.35l.2-.2a2.992,2.992,0,0,1,1.914-.881A2.3,2.3,0,0,1,52-28.213Zm26.1.2a2.364,2.364,0,0,1,.932,1.861A2.954,2.954,0,0,1,78.2-24l-.294.294a26.207,26.207,0,0,1-9.764,6.072A47.293,47.293,0,0,1,56.9-15.384a11.355,11.355,0,0,1-5.888-.93A9.107,9.107,0,0,1,47.039-19.6a6.618,6.618,0,0,1-1.03-4.5,7.522,7.522,0,0,1,2.944-4.7,2.4,2.4,0,0,1,2.208-.686,2.815,2.815,0,0,1,1.619,1.175,3.45,3.45,0,0,1,.589,1.959,2.234,2.234,0,0,1-.785,1.763q-1.079,1.371-.491,2.057a2.772,2.772,0,0,0,1.865.832,8.042,8.042,0,0,0,2.748-.2,4.441,4.441,0,0,0,2.159-1.028,2.376,2.376,0,0,0,1.03-2.008,3.115,3.115,0,0,0-1.03-1.763,15.484,15.484,0,0,0-2.159-1.665,16.393,16.393,0,0,1-2.355-1.861,8.592,8.592,0,0,1-1.717-2.252,3.521,3.521,0,0,1-.049-2.889A6.315,6.315,0,0,1,54.6-38.251a6.207,6.207,0,0,1,2.846-1.273,6.218,6.218,0,0,1,2.993.245,5.005,5.005,0,0,1,2.355,1.567,4.034,4.034,0,0,1,.883,2.644A6.355,6.355,0,0,1,62.3-31.543a10.52,10.52,0,0,1,3.484,3.624,6.939,6.939,0,0,1,.638,4.995,22.285,22.285,0,0,0,4.072-1.959,19.552,19.552,0,0,0,3.582-2.84l.2-.2a2.55,2.55,0,0,1,1.865-.783A3.124,3.124,0,0,1,78.1-28.017Z" transform="translate(76.967 71.467)" fill="#283347"/>
</svg>
