<svg xmlns="http://www.w3.org/2000/svg" xmlns:xlink="http://www.w3.org/1999/xlink" width="840" height="80" viewBox="0 0 840 80">
  <defs>
    <linearGradient id="linear-gradient" x1="0.5" x2="0.5" y2="1" gradientUnits="objectBoundingBox">
      <stop offset="0" stop-color="#283347"/>
      <stop offset="1" stop-color="#fff" stop-opacity="0"/>
    </linearGradient>
  </defs>
  <path id="Path_462679" data-name="Path 462679" d="M1.563-1.875v-10l9.942-10H60.126l10,10V9.554L47.213,9.5l.057-11.371ZM24.417,2.411V38.125l22.854-.057V26.639H70.182l-.057,21.429-10,10-48.565.057-10-10V2.411Zm83.246,35.714-6.056,20H78.752l24.282-80h34.281l24.282,80H138.744l-6.056-20Zm12.513-41.2-6.4,21.2h12.855Zm75.7,11.2,22.854-.057V-1.875H195.879Zm11.256,20H195.879v30H173.025v-80h58.563l10,10V18.068l-9.142,9.143,12,30.914H218.733Zm55.878,0-10-10v-30l9.941-10h58.621v20H275.868v10h35.709l10,10v30l-10,10H253.014v-20h45.708v-10ZM447.273,48.068l-10,10-48.565.057-10-10v-60l9.941-10h48.622l10,10ZM424.419-1.875H401.565v40l22.854-.057Zm57.135.629V58.125H458.7v-80H494.41l27.139,49.029V-21.818H544.4V58.125h-30Zm119.984-.629v-20H660.1l10,10V48.068l-10,10-58.563.057V2.411h22.854V38.125l22.854-.057V-1.875Zm118.213,0H696.9l6.056-20h34.281l24.282,80H738.662l-6.056-20H707.581l-6.056,20H678.67L695.582,2.411h22.854l-4.742,15.714h12.855l-6.456-21.2Zm53.193,0v-10l9.941-10h48.622l10,10V9.554L818.594,9.5l.057-11.371ZM795.8,2.411V38.125l22.854-.057V26.639h22.911l-.057,21.429-10,10-48.565.057-10-10V2.411Z" transform="translate(-1.563 21.875)" opacity="0.32" fill="url(#linear-gradient)"/>
</svg>
