<svg xmlns="http://www.w3.org/2000/svg" xmlns:xlink="http://www.w3.org/1999/xlink" width="722" height="100" viewBox="0 0 722 100">
  <defs>
    <linearGradient id="linear-gradient" x1="0.5" x2="0.5" y2="1" gradientUnits="objectBoundingBox">
      <stop offset="0" stop-color="#283347"/>
      <stop offset="1" stop-color="#fff" stop-opacity="0"/>
    </linearGradient>
  </defs>
  <path id="Contact" d="M1.563,3.125v-12.5L14-21.875H74.82l12.507,12.5V17.411l-28.66-.071.071-14.214ZM30.151,8.482V53.125l28.588-.071V38.768H87.4l-.071,26.786L74.82,78.054l-60.75.071L1.563,65.625V8.482ZM187.459,65.554l-12.507,12.5-60.75.071-12.507-12.5v-75l12.436-12.5h60.822l12.507,12.5ZM158.87,3.125H130.282v50l28.588-.071Zm71.471.786V78.125H201.753v-100h44.669l33.949,61.286V-21.8h28.588V78.125H271.437ZM380.43,3.125V78.054H351.842V3.125H323.254v-25h85.765v25Zm75.473,50-7.576,25H419.739l30.375-100H493l30.375,100H494.784l-7.576-25Zm15.652-51.5-8,26.5h16.081Zm78.547-23.5h60.822l12.507,12.5V17.411l-28.66-.071.072-14.214H566.255v50l28.588-.071V38.768H623.5l-.071,26.786-12.507,12.5-60.75.071-12.507-12.5v-75Zm144.872,25V78.054H666.386V3.125H637.8v-25h85.765v25Z" transform="translate(-1.563 21.875)" opacity="0.32" fill="url(#linear-gradient)"/>
</svg>
