<svg xmlns="http://www.w3.org/2000/svg" xmlns:xlink="http://www.w3.org/1999/xlink" width="1750" height="136" viewBox="0 0 1750 136">
  <defs>
    <linearGradient id="linear-gradient" x1="0.5" x2="0.5" y2="1" gradientUnits="objectBoundingBox">
      <stop offset="0" stop-color="#283347"/>
      <stop offset="1" stop-color="#fff" stop-opacity="0"/>
    </linearGradient>
  </defs>
  <path id="Path_436484" data-name="Path 436484" d="M-746.884-81.527v-34h99.091l16.918,17V3.376l-16.918,17-99.091.1V-74.242h38.67v60.714l38.67-.1v-67.9Zm135.344,0v-34h99.091l16.918,17v50.9L-511-32.082l20.3,52.554h-43.5l-19.625-51H-572.87v51h-38.67V-74.242h38.67v9.714l38.67-.1v-16.9Zm174.014,102H-476.2v-136h38.67Zm83.43-44.006,27.746-91.994h38.67l-41.087,136h-12.084Zm10.828,44.006h-38.67l-41.087-136h38.67l31.419,104.04Zm75.019-102v-34h106.342l-.1,34Zm38.573,7.286v9.714h38.766l-.1,34h-38.67v17h67.769l-.1,34H-268.346l.1-94.714ZM-.558-81.527h-38.67l10.247-34h58l41.087,136H31.441l-10.247-34H-21.15l-10.247,34h-38.67l28.616-94.714h38.67l-8.024,26.714H10.946L.022-83.567Zm90,0v-34h60.422l45.92,83.349V-115.43h38.67v135.9H183.7l-55.588-102Zm38.67,7.286V20.473H89.446V-74.242ZM327.362-47.236,326.3-45.293V20.473h-38.67V-45.293l-38.67-70.234h41.087ZM310.54-91.242l13.341-24.286h41.087L330.939-53.842Zm151.1,9.714v-17l16.821-17h82.27l16.918,17V-62.1l-38.766-.1.1-19.331Zm38.67,7.286v60.714l38.67-.1V-33.053h38.766l-.1,36.429-16.918,17-82.173.1-16.918-17V-74.242ZM641.167-13.527l-10.248,34h-38.67l41.087-136h58l41.087,136h-38.67l-10.247-34Zm21.172-70.04-10.828,36.04h21.752Zm128.094,19.04,38.67-.1v-16.9h-38.67Zm19.045,34H790.432v51h-38.67v-136h99.091l16.918,17v50.9L852.3-32.082l20.3,52.554H829.1Zm94.548,0-16.918-17v-51l16.821-17h99.188v34h-77.34v17H986.2l16.918,17v51l-16.918,17H887.106v-34h77.34v-17Z" transform="translate(746.884 115.527)" opacity="0.1" fill="url(#linear-gradient)"/>
</svg>
