<svg xmlns="http://www.w3.org/2000/svg" xmlns:xlink="http://www.w3.org/1999/xlink" width="749.999" height="100" viewBox="0 0 749.999 100">
  <defs>
    <linearGradient id="linear-gradient" x1="0.5" x2="0.5" y2="1" gradientUnits="objectBoundingBox">
      <stop offset="0" stop-color="#283347"/>
      <stop offset="1" stop-color="#fff" stop-opacity="0"/>
    </linearGradient>
  </defs>
  <path id="Featured" d="M-415.181-81.64v-25h75.67l-.07,25Zm27.449,5.356v7.143h27.585l-.071,25h-27.514v37.5h-27.519l.07-69.643Zm62.051-30.357h75.655l-.065,25h-48.147v12.5h27.584l-.07,25h-27.515v12.5h48.212l-.065,25h-75.661Zm120.791,75-7.294,25H-239.7l29.241-100h41.269l29.233,100h-27.514l-7.29-25Zm15.061-51.5-7.7,26.5h15.473Zm118.661,1.5V-6.711H-98.69V-81.64H-126.2v-25h82.547v25Zm96.3-25H52.654v87.43L40.608-6.711l-58.465.071L-29.9-19.141v-87.5H-2.379v75l27.509-.072Zm68.793,37.5,27.514-.072V-81.64H93.923Zm13.554,25H93.923v37.5H66.409v-100h70.506l12.036,12.5v37.428L137.945-45.284,152.4-6.641h-30.96Zm55.3-62.5h75.665l-.07,25h-48.15v12.5H217.8l-.07,25H190.225v12.5h48.221l-.07,25H162.711Zm171.967,87.43-12.032,12.5L252.2-6.641v-100h70.515l12.032,12.5ZM307.239-81.64H279.715v50l27.523-.072Z" transform="translate(415.251 106.641)" opacity="0.32" fill="url(#linear-gradient)"/>
</svg>
