<svg id="Group_68851" data-name="Group 68851" xmlns="http://www.w3.org/2000/svg" width="70" height="15" viewBox="0 0 70 15">
  <path id="Path_361473" data-name="Path 361473" d="M-415.245-104.254v-2.386h7.063l-.007,2.386Zm2.562.511v.682h2.574l-.005,2.386h-2.568v3.58h-2.568l.006-6.648Zm5.791-2.9h7.062l-.006,2.386h-4.494v1.193h2.574l-.007,2.386h-2.568v1.193h4.5l-.006,2.386H-406.9Zm11.275,7.159L-396.3-97.1h-2.568l2.729-9.545h3.852l2.728,9.545h-2.568l-.681-2.386Zm1.406-4.916-.72,2.53h1.445Zm11.074.143V-97.1h-2.568v-7.152h-2.568v-2.386h7.7v2.386Zm8.989-2.386h2.568V-98.3L-372.7-97.1l-5.457.007-1.123-1.193v-8.352h2.568v7.159l2.568-.007Zm6.42,3.58,2.568-.007v-1.186h-2.568Zm1.265,2.386h-1.265v3.58H-370.3v-9.545h6.581l1.123,1.193v3.573l-1.027,1.091,1.348,3.689h-2.889Zm5.162-5.966h7.062l-.006,2.386h-4.494v1.193h2.574l-.007,2.386h-2.568v1.193h4.5l-.006,2.386h-7.062Zm16.051,8.345-1.124,1.193-6.58.007v-9.545h6.58l1.124,1.193Zm-2.568-5.959h-2.568v4.773l2.568-.007Z" transform="translate(415.251 106.641)" fill="#283347"/>
  <path id="Path_361474" data-name="Path 361474" d="M-96.531-113.421a.489.489,0,0,1,.343-.1.709.709,0,0,1,.39.17.4.4,0,0,1,.143.391.541.541,0,0,1-.209.421l-.1.08a6.233,6.233,0,0,1-1.2.781,11.8,11.8,0,0,1-1.514.641q-.809.28-1.675.491t-1.694.351q-.828.14-1.59.2t-1.352.06a5.019,5.019,0,0,1-2.227-.471,2.906,2.906,0,0,1-1.285-1.222,3.392,3.392,0,0,1-.371-1.753,5.931,5.931,0,0,1,.485-2.053,9.187,9.187,0,0,1,1.295-2.143A11.031,11.031,0,0,1-105-119.571a11.9,11.9,0,0,1,3.75-1.943,16.982,16.982,0,0,1,4.093-.681q.362-.02.733-.01a3.4,3.4,0,0,1,.733.1,2.867,2.867,0,0,1,.676.26,2,2,0,0,1,.581.491,1.593,1.593,0,0,1,.371,1.2,2.724,2.724,0,0,1-.39,1.182,6.451,6.451,0,0,1-1.4,1.452,15.484,15.484,0,0,1-2.028,1.352,18.325,18.325,0,0,1-2.275,1.082,11.326,11.326,0,0,1-2.123.631,3.413,3.413,0,0,1-1.552-.01.791.791,0,0,1-.6-.841,1.963,1.963,0,0,1,.19-.871,1.414,1.414,0,0,1,.419-.551,3.438,3.438,0,0,0,1.761.29,9.5,9.5,0,0,0,2.085-.391,11.83,11.83,0,0,0,2.066-.841,10.21,10.21,0,0,0,1.694-1.082,3.7,3.7,0,0,0,.971-1.082.654.654,0,0,0-.086-.861,1.188,1.188,0,0,0-.59-.28,5.049,5.049,0,0,0-.8-.1,5.693,5.693,0,0,0-.828.02q-.409.04-.657.06a11.943,11.943,0,0,0-2.351.571,12.509,12.509,0,0,0-2.237,1.042,11.459,11.459,0,0,0-1.98,1.482,10.081,10.081,0,0,0-1.58,1.873,7.816,7.816,0,0,0-.495.9,5.51,5.51,0,0,0-.381,1.072,3.269,3.269,0,0,0-.086,1.072,1.425,1.425,0,0,0,.428.9,2.248,2.248,0,0,0,1.209.551,7.8,7.8,0,0,0,1.809.1,16.4,16.4,0,0,0,2.1-.25q1.1-.2,2.113-.481a18.152,18.152,0,0,0,1.818-.6,6.787,6.787,0,0,0,1.228-.6Zm6.263.14.076-.08a.482.482,0,0,1,.362-.16.483.483,0,0,1,.362.16.558.558,0,0,1,.181.4.557.557,0,0,1-.162.421l-.057.06a10.393,10.393,0,0,1-.952.881,6.826,6.826,0,0,1-.7.441,2.767,2.767,0,0,1-.819.3,1.651,1.651,0,0,1-.79-.03,1.086,1.086,0,0,1-.619-.531.042.042,0,0,0-.009-.03.042.042,0,0,1-.01-.03,2.723,2.723,0,0,1-1.571.741,1.755,1.755,0,0,1-1.285-.341,1.629,1.629,0,0,1-.571-1.162,2.686,2.686,0,0,1,.571-1.723,3.792,3.792,0,0,1,.923-.982,3.637,3.637,0,0,1,1.009-.521,2.707,2.707,0,0,1,.942-.14,2.054,2.054,0,0,1,.733.15.751.751,0,0,1,.4.351.453.453,0,0,1-.086.481q-.19.28-.381.26t-.438-.07a1.744,1.744,0,0,0-.59,0,1.842,1.842,0,0,0-.838.471,3.971,3.971,0,0,0-.4.451,3.79,3.79,0,0,0-.362.561,1.756,1.756,0,0,0-.19.531q-.038.24.114.321a.668.668,0,0,0,.581.06,2.554,2.554,0,0,0,.657-.31,3.862,3.862,0,0,0,.6-.481q.276-.27.447-.471a.568.568,0,0,1,.419-.26.466.466,0,0,1,.352.15.663.663,0,0,1,.171.391.59.59,0,0,1-.124.441q-.266.441-.162.551a.366.366,0,0,0,.362.05,2.2,2.2,0,0,0,.562-.23,3.649,3.649,0,0,0,.457-.291Zm6.416-.08a.558.558,0,0,1,.181.4.557.557,0,0,1-.162.421l-.038.06a10.617,10.617,0,0,1-.838.791,4.152,4.152,0,0,1-.933.6,2.955,2.955,0,0,1-1.038.27,2.394,2.394,0,0,1-1.114-.2.961.961,0,0,1-.485-.381,1.093,1.093,0,0,1-.152-.531,1.552,1.552,0,0,1,.1-.581,3.322,3.322,0,0,1,.257-.551,7.122,7.122,0,0,1,.533-.741q.266-.32.514-.661l.019-.02-.876-.12a3.231,3.231,0,0,1-.286.451q-.209.29-.438.591t-.447.561q-.219.26-.314.381l-.057.06a.478.478,0,0,1-.381.18.5.5,0,0,1-.381-.16.652.652,0,0,1-.162-.4.5.5,0,0,1,.143-.381l.057-.06,1.237-1.583a1.294,1.294,0,0,1-.466-.881,1.039,1.039,0,0,1,.228-.721.944.944,0,0,1,.619-.331.7.7,0,0,1,.666.31.873.873,0,0,1,.181.381q.048.22.067.381a2.958,2.958,0,0,1,1.218.18,1.323,1.323,0,0,1,.666.531,1.043,1.043,0,0,1,.086.781,2.221,2.221,0,0,1-.524.931l-1.047,1.242a.585.585,0,0,0-.048.06q-.029.04.048.08a.985.985,0,0,0,.419.08,1.774,1.774,0,0,0,.5-.09,2.352,2.352,0,0,0,.676-.371,4.223,4.223,0,0,0,.5-.4q.238-.22.485-.481l.038-.04a.568.568,0,0,1,.371-.18A.434.434,0,0,1-83.852-113.361Z" transform="translate(131.271 124.935)" fill="#a5a5a5"/>
</svg>
