<svg xmlns="http://www.w3.org/2000/svg" width="72" height="48" viewBox="0 0 72 48">
  <g id="Instagram" transform="translate(-5543 -5464)">
    <rect id="Rectangle_2153" data-name="Rectangle 2153" width="72" height="48" rx="24" transform="translate(5543 5464)" fill="#283347"/>
    <g id="instagram_8_" data-name="instagram (8)" transform="translate(5567.004 5476.002)">
      <path id="Path_204829" data-name="Path 204829" d="M24.388,7.055a8.765,8.765,0,0,0-.558-2.911A6.148,6.148,0,0,0,20.317.633,8.8,8.8,0,0,0,17.405.075C16.12.014,15.712,0,12.453,0S8.786.014,7.506.07A8.777,8.777,0,0,0,4.594.628,5.857,5.857,0,0,0,2.465,2.016,5.908,5.908,0,0,0,1.082,4.139,8.789,8.789,0,0,0,.524,7.05C.463,8.335.449,8.742.449,12s.014,3.666.07,4.945a8.765,8.765,0,0,0,.558,2.911,6.147,6.147,0,0,0,3.512,3.511,8.8,8.8,0,0,0,2.912.558c1.28.056,1.688.07,4.947.07s3.667-.014,4.947-.07a8.772,8.772,0,0,0,2.912-.558,6.139,6.139,0,0,0,3.512-3.511,8.8,8.8,0,0,0,.558-2.911c.056-1.28.07-1.688.07-4.945s0-3.666-.061-4.945Zm-2.162,9.8a6.575,6.575,0,0,1-.413,2.227,3.981,3.981,0,0,1-2.279,2.278,6.6,6.6,0,0,1-2.227.412c-1.266.056-1.646.07-4.849.07s-3.587-.014-4.849-.07a6.578,6.578,0,0,1-2.227-.412,3.957,3.957,0,0,1-2.274-2.273,6.6,6.6,0,0,1-.413-2.227c-.056-1.266-.07-1.645-.07-4.847s.014-3.586.07-4.847a6.572,6.572,0,0,1,.413-2.227,3.647,3.647,0,0,1,.9-1.378,3.726,3.726,0,0,1,1.379-.9A6.609,6.609,0,0,1,7.614,2.25c1.266-.056,1.646-.07,4.849-.07s3.587.014,4.849.07a6.582,6.582,0,0,1,2.227.413,3.691,3.691,0,0,1,1.379.9,3.73,3.73,0,0,1,.9,1.378,6.6,6.6,0,0,1,.413,2.227c.056,1.266.07,1.645.07,4.847s-.014,3.577-.07,4.842Zm0,0" transform="translate(-0.449 0)" fill="#fff"/>
      <path id="Path_204830" data-name="Path 204830" d="M131.115,124.5a6.164,6.164,0,1,0,6.166,6.164A6.167,6.167,0,0,0,131.115,124.5Zm0,10.163a4,4,0,1,1,4-4A4,4,0,0,1,131.115,134.663Zm0,0" transform="translate(-119.111 -118.664)" fill="#fff"/>
      <path id="Path_204831" data-name="Path 204831" d="M365.329,90.041a1.44,1.44,0,1,1-1.44-1.439A1.439,1.439,0,0,1,365.329,90.041Zm0,0" transform="translate(-345.474 -84.449)" fill="#fff"/>
    </g>
  </g>
</svg>
