<svg xmlns="http://www.w3.org/2000/svg" xmlns:xlink="http://www.w3.org/1999/xlink" width="875" height="100" viewBox="0 0 875 100">
  <defs>
    <linearGradient id="linear-gradient" x1="0.5" x2="0.5" y2="1" gradientUnits="objectBoundingBox">
      <stop offset="0" stop-color="#283347"/>
      <stop offset="1" stop-color="#fff" stop-opacity="0"/>
    </linearGradient>
  </defs>
  <path id="Inventory" d="M-164.415,78.125h-28.569v-100h28.569Zm42.854-74.214V78.125h-28.569v-100h44.639l33.926,61.286V-21.8H-43V78.125h-37.5ZM42.711-21.875H71.28l-30.355,100H-1.929l-30.355-100H-3.714L19.5,54.625Zm42.925,0H164.2l-.071,25h-50v12.5h28.641l-.071,25H114.133v12.5H164.2l-.071,25H85.564ZM207.054,3.911V78.125H178.485v-100h44.639L257.05,39.411V-21.8h28.569V78.125h-37.5Zm149.988-.786V78.054H328.473V3.125H299.9v-25h85.707v25ZM485.6,65.554l-12.5,12.5-60.709.071-12.5-12.5v-75l12.428-12.5H473.1l12.5,12.5ZM457.034,3.125H428.465v50l28.569-.071Zm71.423,12.5,28.569-.071V3.125H528.457Zm14.07,25h-14.07v37.5H499.888v-100H573.1l12.5,12.5V28.054L574.167,39.482l15,38.643h-32.14Zm82.35-10.857L596.308-21.875h30.355L639.162.7l12.5-22.571h30.355L653.447,29.768V78.125H624.877Z" transform="translate(192.984 21.875)" opacity="0.32" fill="url(#linear-gradient)"/>
</svg>
