<svg xmlns="http://www.w3.org/2000/svg" xmlns:xlink="http://www.w3.org/1999/xlink" width="703" height="100" viewBox="0 0 703 100">
  <defs>
    <linearGradient id="linear-gradient" x1="0.5" x2="0.5" y2="1" gradientUnits="objectBoundingBox">
      <stop offset="0" stop-color="#283347"/>
      <stop offset="1" stop-color="#fff" stop-opacity="0"/>
    </linearGradient>
  </defs>
  <path id="Popular" d="M-154.7-21.875h73.147l12.489,12.5V28.054l-12.489,12.5-44.6.071v37.5H-154.7Zm28.545,37.5,28.545-.071V3.125h-28.545Zm157,49.929-12.489,12.5-60.659.071-12.489-12.5v-75l12.417-12.5h60.73l12.489,12.5ZM2.3,3.125H-26.249v50L2.3,53.054Zm42.818-25h73.147l12.489,12.5V28.054l-12.489,12.5-44.6.071v37.5H45.114Zm28.545,37.5,28.545-.071V3.125H73.659Zm128.454-37.5h28.545V65.554l-12.489,12.5-60.659.071-12.489-12.5v-87.5h28.545v75l28.545-.071Zm42.889,0h28.474v75h57.162l-.071,25H244.931Zm132.45,75-7.565,25H341.343l30.329-100h42.818l30.329,100H416.275l-7.564-25Zm15.629-51.5-7.993,26.5h16.057Zm94.556,14,28.545-.071V3.125H487.638Zm14.059,25H487.638v37.5H459.093v-100H532.24l12.489,12.5V28.054L533.311,39.482,548.3,78.125H516.183Z" transform="translate(154.703 21.875)" opacity="0.32" fill="url(#linear-gradient)"/>
</svg>
