<svg xmlns="http://www.w3.org/2000/svg" xmlns:xlink="http://www.w3.org/1999/xlink" width="925.6" height="80" viewBox="0 0 925.6 80">
  <defs>
    <linearGradient id="linear-gradient" x1="0.5" x2="0.5" y2="1" gradientUnits="objectBoundingBox">
      <stop offset="0" stop-color="#283347"/>
      <stop offset="1" stop-color="#fff" stop-opacity="0"/>
    </linearGradient>
  </defs>
  <path id="Path_462677" data-name="Path 462677" d="M1.563-1.875v-20h58.55l10,10V18.068l-10,10-35.7.057v30H1.563V2.411H24.411V8.125L47.26,8.068V-1.875Zm102.819,10,22.849-.057V-1.875H104.382Zm11.253,20H104.382v30H81.533v-80h58.55l10,10V18.068l-9.139,9.143,12,30.914h-25.7Zm45.926-50h62.834l-.057,20H184.352v10h22.906l-.057,20H184.352v10h40.042l-.057,20H161.5Zm74.258,50v-20h62.834l-.057,20Zm119.956-20v-10h-45.7v-10l9.939-10h48.611l10,10V48.068l-.857.857,3.713,9.2H320.073l-10-10V2.411h22.849V38.125l14.852-.057-12-29.943Zm79.97-30h22.849V48.068l-10,10-48.553.057-10-10v-70H412.9v60l22.849-.057Zm60.32,60-6.055,20H467.161l24.277-80h34.273l24.277,80H527.139l-6.055-20Zm12.51-41.2-6.4,21.2h12.852Zm52.895-18.8h22.792v60h45.754l-.057,20H561.412Zm102.819,80H641.44v-80h22.849Zm11.481-80H738.6l-.057,20H698.561v10h22.906l-.057,20H698.561v30H675.713Zm97.107,80H750.028v-80h22.849Zm11.481-80h62.834l-.057,20H807.15v10h22.906l-.057,20H807.15v10h40.042l-.057,20H784.3Zm142.8,69.943-10,10-58.55.057v-80h58.55l10,10ZM904.314-1.875H881.465v40l22.849-.057Z" transform="translate(-1.563 21.875)" opacity="0.32" fill="url(#linear-gradient)"/>
</svg>
