<svg xmlns="http://www.w3.org/2000/svg" xmlns:xlink="http://www.w3.org/1999/xlink" width="896" height="100" viewBox="0 0 896 100">
  <defs>
    <linearGradient id="linear-gradient" x1="0.5" x2="0.5" y2="1" gradientUnits="objectBoundingBox">
      <stop offset="0" stop-color="#283347"/>
      <stop offset="1" stop-color="#fff" stop-opacity="0"/>
    </linearGradient>
  </defs>
  <path id="TERMS_AND_CONDITIONS" data-name="TERMS AND CONDITIONS" d="M60.742,37.012l15.132-50h39.258v100H86.581V45.869L75.017,84.083Zm9.779,50H41.97L29.479,45.869V87.012H.928v-100H40.185L58.03,45.869Zm83.868-48.357L125.838-12.988h30.335L168.665,9.583l12.491-22.571h30.335L182.94,38.655V87.012H154.389ZM282.868,12.012v-25H356.03l12.491,12.5V36.94L356.03,49.44l-44.611.071v37.5H282.868V17.369h28.551v7.143l28.551-.071V12.012Zm128.479,12.5L439.9,24.44V12.012H411.348Zm14.061,25H411.348v37.5H382.8v-100h73.162l12.491,12.5V36.94l-11.42,11.429,14.989,38.643H439.9ZM568.378,74.44l-12.491,12.5-60.671.071-12.491-12.5v-75l12.42-12.5h60.742l12.491,12.5ZM539.827,12.012H511.276v50l28.551-.071Zm42.9-25H661.24l-.071,25H611.2v12.5h28.622l-.071,25H611.2v37.5H582.653Zm121.341,100H675.515v-100h28.551Zm14.347-100h28.48v75h57.173l-.071,25H718.342Zm100,0h78.515l-.071,25H846.892v12.5h28.622l-.071,25H846.892v12.5h50.036l-.071,25H818.341Z" transform="translate(-0.928 12.988)" opacity="0.32" fill="url(#linear-gradient)"/>
</svg>
