<svg xmlns="http://www.w3.org/2000/svg" width="72" height="48" viewBox="0 0 72 48">
  <g id="Group_344170" data-name="Group 344170" transform="translate(-5652 -5461)">
    <rect id="Rectangle_2153" data-name="Rectangle 2153" width="72" height="48" rx="24" transform="translate(5652 5461)" fill="#fff"/>
    <g id="youtube_6_" data-name="youtube (6)" transform="translate(5676 5476)">
      <path id="youtube_6_2" data-name="youtube (6)" d="M12,18.5h-.006c-.724-.005-7.126-.066-8.94-.575a3.782,3.782,0,0,1-2.61-2.707A29.3,29.3,0,0,1,0,9.524a29.852,29.852,0,0,1,.44-5.737V3.781A3.863,3.863,0,0,1,3.048,1.056l.01,0C4.851.565,11.265.5,11.991.5H12c.726.005,7.145.066,8.942.576a3.781,3.781,0,0,1,2.607,2.7,28.426,28.426,0,0,1,.442,5.767,29.381,29.381,0,0,1-.44,5.686v.005a3.783,3.783,0,0,1-2.611,2.707l-.005,0c-1.793.489-8.208.549-8.934.554H12ZM2.252,4.286a28.871,28.871,0,0,0-.377,5.225v.026a27.126,27.126,0,0,0,.377,5.177,1.864,1.864,0,0,0,1.287,1.332A60.5,60.5,0,0,0,12,16.554a62.946,62.946,0,0,0,8.461-.49,1.865,1.865,0,0,0,1.284-1.331,27.219,27.219,0,0,0,.377-5.177c0-.01,0-.021,0-.031a26.271,26.271,0,0,0-.376-5.233v0a1.865,1.865,0,0,0-1.288-1.334A60.27,60.27,0,0,0,12,2.446a63.031,63.031,0,0,0-8.459.489A1.919,1.919,0,0,0,2.252,4.286Zm20.4,10.7h0ZM9.608,13.44V5.559L16.17,9.5Zm0,0" transform="translate(0.002 -0.5)" fill="#283347"/>
    </g>
  </g>
</svg>
